<?xml version="1.0" ?><svg id="Graphics" style="enable-background:new 0 0 512 512;" version="1.1" viewBox="0 0 512 512" xml:space="preserve" xmlns="http://www.w3.org/2000/svg" xmlns:xlink="http://www.w3.org/1999/xlink"><style type="text/css">
	.st0{fill:url(#SVGID_1_);}
	.st1{fill:#F72585;}
	.st2{fill:#FAAF3D;}
	.st3{fill:#231F20;}
	.st4{fill:#FBA5A6;}
	.st5{fill:#7209B7;}
	.st6{fill:url(#SVGID_2_);}
	.st7{fill:url(#SVGID_3_);}
	.st8{opacity:0.3;}
	.st9{fill:url(#SVGID_4_);}
	.st10{opacity:0.3;fill:#111C3A;}
	.st11{fill:url(#SVGID_5_);}
	.st12{fill:#FFFFFF;}
	.st13{fill:#FA8788;}
	.st14{fill:#A53A06;}
	.st15{fill:url(#SVGID_6_);}
	.st16{fill:#111C3A;}
	.st17{fill:#FF5722;}
	.st18{fill:#FB9697;}
	.st19{fill:url(#SVGID_7_);}
	.st20{fill:#FEBF44;}
	.st21{fill:url(#SVGID_8_);}
	.st22{fill:url(#SVGID_9_);}
	.st23{fill:url(#SVGID_10_);}
	.st24{fill:url(#SVGID_11_);}
	.st25{fill:url(#SVGID_12_);}
	.st26{fill:url(#SVGID_13_);}
	.st27{fill:url(#SVGID_14_);}
	.st28{fill:#4361EE;}
	.st29{fill:url(#SVGID_15_);}
	.st30{fill:#FEB423;}
</style><g id="Scene_06_1_"><g><linearGradient gradientUnits="userSpaceOnUse" id="SVGID_1_" x1="21.7051" x2="492.0694" y1="277.3257" y2="277.3257"><stop offset="0" style="stop-color:#ECEBFA"/><stop offset="1" style="stop-color:#F6F7FE"/></linearGradient><path class="st0" d="M487.4,292.5c1.4-3.9,2.6-7.9,3.4-12.1c5.8-30.4-8.9-64-33-78.7c-17-10.4-36.3-13.9-54.6-20.4    c-17.8-6.3-34.4-17.4-49-30.4c-12.3-11-23.4-23.7-36.3-33.9c-56.4-44.4-137.7-26.6-175.7,37.2c-12.4,20.9-19.8,45.1-32,66.1    c-28,48.2-88.1,82.9-88.5,147.1c-0.2,34,19.3,70.4,40.5,94.8h385c12-27.1-3.2-60,1.9-89.7C454.4,341.9,477.5,320.1,487.4,292.5z"/><g><g><path class="st1" d="M463.7,357.1H288.5c-13.3,0-24.1-10.8-24.1-24.1V189.5c0-13.3,10.8-24.1,24.1-24.1h175.2      c13.3,0,24.1,10.8,24.1,24.1v143.6C487.7,346.3,476.9,357.1,463.7,357.1z M288.5,169.4c-11.1,0-20.1,9-20.1,20.1v143.6      c0,11.1,9,20.1,20.1,20.1h175.2c11.1,0,20.1-9,20.1-20.1V189.5c0-11.1-9-20.1-20.1-20.1H288.5z"/></g><g><path class="st1" d="M376.1,207.3H266.4c-1.1,0-2-0.9-2-2c0-1.1,0.9-2,2-2h109.7c1.1,0,2,0.9,2,2      C378.1,206.4,377.2,207.3,376.1,207.3z"/></g><g><circle class="st2" cx="292.9" cy="187.2" r="4.7"/></g><g><path class="st2" d="M316.7,187c0,2.6-2.1,4.7-4.7,4.7c-2.6,0-4.7-2.1-4.7-4.7c0-2.6,2.1-4.7,4.7-4.7      C314.6,182.2,316.7,184.4,316.7,187z"/></g><g><circle class="st2" cx="331.1" cy="186.8" r="4.7"/></g></g><g><g><path class="st1" d="M217.7,278.8H62.3c-13.3,0-24.1-10.8-24.1-24.1V128.1c0-13.3,10.8-24.1,24.1-24.1h155.4      c13.3,0,24.1,10.8,24.1,24.1v126.6C241.8,268,231,278.8,217.7,278.8z M62.3,108c-11.1,0-20.1,9-20.1,20.1v126.6      c0,11.1,9,20.1,20.1,20.1h155.4c11.1,0,20.1-9,20.1-20.1V128.1c0-11.1-9-20.1-20.1-20.1H62.3z"/></g><g><path class="st1" d="M200,142.4H40.3c-1.1,0-2-0.9-2-2c0-1.1,0.9-2,2-2H200c1.1,0,2,0.9,2,2C202,141.5,201.1,142.4,200,142.4z"/></g><g><path class="st2" d="M68.6,124c0,2.4-1.9,4.3-4.3,4.3c-2.4,0-4.3-1.9-4.3-4.3c0-2.4,1.9-4.3,4.3-4.3      C66.7,119.7,68.6,121.6,68.6,124z"/></g><g><circle class="st2" cx="81.7" cy="123.8" r="4.3"/></g><g><circle class="st2" cx="99.1" cy="123.6" r="4.3"/></g></g><g id="XMLID_96_"><path class="st3" d="M199.2,206.4c2.1,0.3,8.2,5.1,9.6,1.2c0,0,3.4-8.2,3.4-8.2c0.5-1.3-0.1-2.8-1.4-3.3l-5-2     c-1.8-0.8-1.9-4.9,0-5.8c1.8-1.1,7.9-2,6.3-5.5c-1.4-2-2.8-11.4-6.6-9.5c-3,1-6.3,4-8.6,0.4c-1.8-1.4,1.3-5.8,1.6-7.4     c0.5-1.3-0.1-2.8-1.4-3.3l-8.1-3.3c-1.3-0.5-2.8,0.1-3.3,1.4c-0.9,1.5-1.7,6.7-4.1,6.4c-4.1,1-4.5-3.5-5.8-6.3     c-1.4-4-9,1.7-11.4,2.2c-3.5,1.4,0.2,6.3,0.7,8.4c0.7,2-2.1,4.9-4,4.1c0,0-5-2-5-2c-1.3-0.5-2.8,0.1-3.3,1.4l-3.4,8.2     c-1.5,3.5,4.5,4.3,6.3,5.3c1.5,0.6,1.3,2.3,1.3,3.7c0,4-9.3,2.7-7.6,7.6c0,0,3.3,8.2,3.3,8.2c1.3,3.5,6.2-0.2,8.3-0.8     c1.9-0.7,4.8,2,4,4c-0.6,2.2-4.2,7.2-0.7,8.4c0,0,8.1,3.3,8.1,3.3c3.3,1.5,4.3-4.5,5.4-6.5c0.9-1.9,4.9-1.9,5.7-0.1     c1.1,1.9,2,8,5.3,6.4c0,0,8.1-3.5,8.1-3.5c1.3-0.6,1.9-2.1,1.4-3.3C196.8,211,194.5,210.6,199.2,206.4z M170.5,184.7     c8.8-13.7,29.5-0.7,20.8,13.4C182.5,211.8,161.8,198.9,170.5,184.7z" id="XMLID_97_"/></g><g><g><path class="st3" d="M390.1,164.1c-1.4,0.1-2.3,1.4-3,2.4c-0.8,1-1.4,2.1-1.9,3.3c-1.1,2.4-1.7,4.9-1.8,7.5      c-0.1,2.5,0.3,5.1,1.2,7.4c0.9,2.3,2.2,4.4,3.9,6.2c1.6,1.8,3.6,3.3,5.8,4.3c0.3,0.1,0.6,0.3,0.8,0.4c0.2,0.1,0.5-0.1,0.5-0.3      c0.1-0.2-0.1-0.4-0.3-0.5c-2.1-0.9-4-2.2-5.7-3.8c-1.6-1.6-3-3.5-3.9-5.6c-1-2.2-1.5-4.5-1.6-6.9c-0.1-2.4,0.4-4.9,1.2-7.2      c0.4-1.1,1-2.2,1.6-3.3c0.3-0.5,0.7-1,1-1.5c0.4-0.5,0.8-1,1.2-1.3c0.2-0.2,0.5-0.3,0.8-0.3C390.6,164.9,390.6,164,390.1,164.1      L390.1,164.1z"/></g><path class="st4" d="M318.4,253l2.1-2c2.6-2.6,4.7-5.5,6.3-8.7l1.2-3.5c0.6-1.7,0.7-3.3-0.8-4.3l0,0c-0.1,0-0.1-0.1-0.2-0.1     c-1.3-0.7-3-0.2-3.8,1l-2.2,3.5c-1.8,2.6-3.9,4.9-6.3,6.9l-1.9,1.2c-2.2,1.8-1.8,5.3,0.7,6.7l0,0     C315.3,254.6,317.2,254.3,318.4,253z"/><path class="st5" d="M409.8,225.1c-12.2,2.8-25,13.7-35.6,24.9c3,2.2,5.2,5.6,6.9,9c3.9,7.2,7.2,15,9.1,22.9     c16.9-24.2,26.5-50.1,26.5-50.1C420.5,222.9,409.8,225.1,409.8,225.1z"/><linearGradient gradientUnits="userSpaceOnUse" id="SVGID_2_" x1="296.6037" x2="417.536" y1="266.5173" y2="266.5173"><stop offset="0" style="stop-color:#FF5722"/><stop offset="0.2665" style="stop-color:#FC5521"/><stop offset="0.4596" style="stop-color:#F34E20"/><stop offset="0.6296" style="stop-color:#E3411D"/><stop offset="0.7862" style="stop-color:#CD3019"/><stop offset="0.9323" style="stop-color:#B01A14"/><stop offset="1" style="stop-color:#A00E11"/></linearGradient><path class="st6" d="M409.8,225.1c-21.9,5-45.6,36.2-55.4,48.3v0c-12.7-9.8-29.6-22.3-38.2-26.3c-5.2-2.4-9.7-0.5-13.3,3.1     c-8.5,8.3-8.4,21.3,0,28.8c14.4,12.8,40.8,32.8,62.5,28.6c14-2.7,16.6-7.3,15.1-11.5c3.2-4,6.3-9.2,9.4-13.6     c17.1-24.4,26.9-50.7,26.9-50.7C420.5,222.9,409.8,225.1,409.8,225.1z"/><g><linearGradient gradientUnits="userSpaceOnUse" id="SVGID_3_" x1="288.7855" x2="288.7855" y1="342.1889" y2="251.8058"><stop offset="0" style="stop-color:#4361EE"/><stop offset="0.222" style="stop-color:#4573EE"/><stop offset="0.6653" style="stop-color:#49A2EF"/><stop offset="1" style="stop-color:#4CC9F0"/></linearGradient><path class="st7" d="M333.5,244.8h-70.9c-5.5,0-9.9,4.4-9.9,9.9V272c-0.2,0-0.3,0-0.5,0c-10,0-18.1,8.1-18.1,18.1      c0,10,8.1,18.1,18.1,18.1c0.2,0,0.3,0,0.5,0v17.3c0,5.5,4.4,9.9,9.9,9.9h70.9c5.5,0,9.9-4.4,9.9-9.9v-70.9      C343.4,249.2,339,244.8,333.5,244.8z"/></g><polygon class="st3" points="372.9,341.3 360.7,462.2 422.2,462.2 428.3,309.8 376.2,311.2    "/><polygon class="st3" points="473.6,462.5 457.2,309.8 376.2,311.2 372.9,341.3 408.7,359.2 416.2,462.5    "/><polygon class="st8" points="408.7,359.2 395.8,352.7 410.6,462.2 415.3,462.2    "/><linearGradient gradientUnits="userSpaceOnUse" id="SVGID_4_" x1="417.51" x2="414.3138" y1="319.1102" y2="217.8154"><stop offset="0" style="stop-color:#A00E11"/><stop offset="4.170418e-03" style="stop-color:#A10F11"/><stop offset="0.1926" style="stop-color:#C32917"/><stop offset="0.3851" style="stop-color:#DD3D1C"/><stop offset="0.5813" style="stop-color:#F04B1F"/><stop offset="0.7833" style="stop-color:#FB5421"/><stop offset="1" style="stop-color:#FF5722"/></linearGradient><path class="st9" d="M456,311.3c1.9,0,3.4-1.6,3.2-3.4c-0.9-15.2-5.4-76.3-19.5-89.5c-16.6-15.6-62.6,31.6-62.1,39.2     c0.3,5.1,3.9,13.4,6.2,18.5c1.3,2.8,1.6,5.9,0.9,8.9l-9.6,26.4H456z"/><g><path class="st3" d="M381.6,294c0,0-0.1,0-0.1,0c-0.2-0.1-0.3-0.3-0.2-0.5l3.2-8.7c0.7-2.9,0.4-5.9-0.8-8.6      c-2.2-4.7-6-13.4-6.3-18.6c-0.2-3.1,6.3-11.6,15.4-20.4c0.1-0.1,0.4-0.1,0.5,0c0.1,0.1,0.1,0.4,0,0.5      c-8.8,8.5-15.4,17-15.2,19.8c0.3,5.1,4,13.7,6.2,18.3c1.3,2.8,1.7,6.1,0.9,9.2l-3.2,8.8C381.9,293.9,381.7,294,381.6,294z"/></g><polygon class="st10" points="436,240.3 456.9,311.3 401.8,311.5    "/><path class="st4" d="M404.8,289.1c0,0-26.2,6.9-46.2,14.4c-12.9,4.9-17.2,12.4-19.5,17.8c-5.3,12.6,12,21.6,25.3,18.6     c22.9-5.2,58.3-16,67.2-39.9C443.2,269.1,404.8,289.1,404.8,289.1z"/><linearGradient gradientUnits="userSpaceOnUse" id="SVGID_5_" x1="356.1139" x2="439.8909" y1="282.8264" y2="282.8264"><stop offset="0" style="stop-color:#A00E11"/><stop offset="6.770599e-02" style="stop-color:#B01A14"/><stop offset="0.2138" style="stop-color:#CD3019"/><stop offset="0.3704" style="stop-color:#E3411D"/><stop offset="0.5404" style="stop-color:#F34E20"/><stop offset="0.7335" style="stop-color:#FC5521"/><stop offset="1" style="stop-color:#FF5722"/></linearGradient><path class="st11" d="M432.9,233.4c0,0-10.5-12.3-14.5-3.5c0,0-12.5,25.1-18.7,54.2c-0.4,1.9-0.6,3.7-0.6,5.3     c-8.6,2.4-24.5,7.1-38.2,12.2c-12.9,4.9,3.7,39.5,11.9,37c22.4-7,50-15.3,60.5-38.6c2-4.4,3-7.9,3.2-10.6c0.1-0.5,0.2-1,0.3-1.4     C438.9,272.7,444.2,252.9,432.9,233.4z"/><g><path class="st12" d="M370.1,298.7c-1.2,0.4-2.4,0.9-3.6,1.3c-12.6,4.7,2.8,37.7,11.2,37.1c1.4-0.4,2.9-0.9,4.3-1.4      C373.8,332.8,361.5,305.8,370.1,298.7z"/><path class="st12" d="M379.3,295.4c-0.2,0.1-0.4,0.1-0.6,0.2c-1,0.4-2,0.7-3,1.1c-12.2,4.7,1.9,35.7,10.6,37.7      c1.6-0.5,3.2-1.1,4.7-1.7C382.7,328.5,370.9,302.6,379.3,295.4z"/></g><path class="st4" d="M364.5,339.9c0,0-25.7,9-53,3.4c-2.9-0.6-16.6-3.6-17.4-8l50.1-2.9L364.5,339.9z"/><path class="st4" d="M348,337.3l-29.2-10.7c-1.8-0.7-2.6-2.7-1.8-4.4l0,0c0.6-1.3,2-2,3.4-1.9l38.4,4.6L348,337.3z"/><path class="st4" d="M289.1,238.4l-1.1,2.4c-1.2,2.9-2,6-2.2,9.2l0.2,3.2c0.1,1.5,0.6,2.9,2,3.2l0,0c0.1,0,0.1,0,0.2,0     c1.3,0.2,2.5-0.8,2.7-2.1l0.6-3.6c0.6-2.7,1.5-5.3,2.8-7.7l1.1-1.6c1.2-2.2-0.3-4.9-2.8-5.2l0,0     C291.1,236.1,289.7,237,289.1,238.4z"/><path class="st4" d="M295.2,239l-1.2,2.7c-1.4,3.3-2.3,6.9-2.5,10.5l0.2,3.7c0.1,1.8,0.6,3.4,2.3,3.7l0,0c0.1,0,0.1,0,0.2,0     c1.5,0.2,2.8-0.9,3.1-2.4l0.7-4.1c0.7-3.1,1.7-6,3.2-8.8l1.3-1.8c1.4-2.5-0.3-5.6-3.2-5.9l0,0C297.5,236.4,295.9,237.4,295.2,239     z"/><path class="st4" d="M301.9,239.3l-1.2,2.7c-1.4,3.3-2.8,9.4-3,13l0.2,3.7c0.1,1.8,0.6,3.4,2.3,3.7l0,0c0.1,0,0.1,0,0.2,0     c1.5,0.2,2.8-0.9,3.1-2.4l0.7-4.1c0.7-3.1,2.3-8.5,3.7-11.3l1.3-1.8c1.4-2.5-0.3-5.6-3.2-5.9l0,0     C304.2,236.7,302.6,237.7,301.9,239.3z"/><path class="st4" d="M308.3,241.3l-1.2,2.7c-1.4,3.3-2.3,6.9-2.5,10.5l0.2,3.7c0.1,1.8,0.6,3.4,2.3,3.7l0,0c0.1,0,0.1,0,0.2,0     c1.5,0.2,2.8-0.9,3.1-2.4l0.7-4.1c0.7-3.1,1.7-6,3.2-8.8l1.3-1.8c1.4-2.5-0.3-5.6-3.2-5.9l0,0C310.6,238.7,309,239.7,308.3,241.3     z"/><g><path class="st13" d="M307.6,262.3c-0.1,0-0.2,0-0.4,0c-0.1,0-0.1,0-0.2,0c-1.1-0.2-2.5-1.1-2.6-4l-0.2-3.7      c0.3-3.7,1.1-7.3,2.5-10.6c0.1-0.2,0.3-0.3,0.5-0.2c0.2,0.1,0.3,0.3,0.2,0.5c-1.4,3.3-2.2,6.8-2.5,10.3l0.2,3.6      c0.1,2,0.8,3.1,2,3.3c0.1,0,0.1,0,0.2,0c1.3,0.1,2.4-0.8,2.7-2.1l0.7-4.1c0.7-3.1,1.8-6.1,3.3-8.9c0.1-0.2,0.3-0.3,0.5-0.2      c0.2,0.1,0.3,0.3,0.2,0.5c-1.5,2.7-2.5,5.6-3.2,8.7l-0.7,4.1C310.4,261.1,309.1,262.3,307.6,262.3z"/></g><g><path class="st13" d="M300.7,262.8c-0.1,0-0.2,0-0.4,0c-0.1,0-0.1,0-0.2,0c-1.1-0.2-2.5-1.1-2.6-4l-0.2-3.7      c0.3-3.7,1.1-7.3,2.5-10.6c0.1-0.2,0.3-0.3,0.5-0.2c0.2,0.1,0.3,0.3,0.2,0.5c-1.4,3.3-2.2,6.8-2.5,10.3l0.2,3.6      c0.1,2,0.8,3.1,2,3.3c0.1,0,0.1,0,0.2,0c1.3,0.1,2.4-0.8,2.7-2.1l0.7-4.1c0.1-0.5,0.2-1,0.4-1.5c0.1-0.2,0.3-0.3,0.5-0.3      c0.2,0.1,0.3,0.3,0.3,0.5c-0.1,0.5-0.2,1-0.3,1.4l-0.7,4.1C303.5,261.7,302.2,262.8,300.7,262.8z"/></g><g><path class="st13" d="M294.5,259.9c-0.1,0-0.2,0-0.4,0c-0.1,0-0.1,0-0.2,0c-1.1-0.2-2.5-1.1-2.6-4l-0.2-3.7      c0.3-3.7,1.1-7.3,2.5-10.6c0.1-0.2,0.3-0.3,0.5-0.2c0.2,0.1,0.3,0.3,0.2,0.5c-1.4,3.3-2.2,6.8-2.5,10.3l0.2,3.6      c0.1,2,0.8,3.1,2,3.3c0.1,0,0.1,0,0.2,0c1.3,0.2,2.4-0.8,2.7-2.1l0.6-4.2c0-0.2,0.2-0.4,0.4-0.3c0.2,0,0.3,0.2,0.3,0.4l-0.6,4.2      C297.4,258.8,296,259.9,294.5,259.9z"/></g><g><path class="st13" d="M288.5,257c-0.1,0-0.2,0-0.3,0c-0.1,0-0.1,0-0.2,0c-1-0.2-2.2-0.9-2.3-3.5l-0.2-3.2c0.2-3.2,1-6.3,2.2-9.2      c0.1-0.2,0.3-0.3,0.5-0.2c0.2,0.1,0.3,0.3,0.2,0.5c-1.2,2.8-1.9,5.8-2.1,8.9l0.2,3.1c0.1,1.7,0.6,2.6,1.7,2.8l0.1,0      c1.1,0.1,2-0.6,2.2-1.7l0.5-3.6c0-0.2,0.2-0.4,0.4-0.3c0.2,0,0.3,0.2,0.3,0.4l-0.5,3.6C291,256,289.9,257,288.5,257z"/></g><path class="st14" d="M408.8,218.5c-0.2-0.4-0.5-0.7-1-0.9c-0.6-0.2-1.3,0.1-1.8,0.6c-1.4,1.1-2,2.9-2.2,4.7     c-0.2,1.8,0.1,3.5,0.4,5.3c0.2,1.2,0.4,2.5,1.1,3.5l1.1-1.1c1.4-2.5,2.4-5.2,2.8-8.1C409.4,221.2,409.5,219.7,408.8,218.5z"/><path class="st3" d="M421.1,177.6c-0.3-0.6-0.6-1.2-0.9-1.8c-1.2-2.2-2.8-4.2-4.5-6c-1.5-1.6-3-3-4.9-4c-2-1-3.5-2.6-5.4-3.8     c-2.1-1.2-4.6-2-7-2.1c-0.4,0-0.8,0-1.2,0.1c-0.4,0.2-0.5,0.4-0.7,0.7c-0.4,0.5-1.1,0.9-1.6,1.3c-0.8,0.7-1.4,1.6-2.3,2     c-0.3,0.2-0.7,0.3-1,0.6c-0.6,0.4-1.2,0.8-1.7,1.3c-1.1,1-1.9,2.3-2.6,3.6c-1.4,2.7-2,5.8-2.1,8.9c-0.4,13.5,8.2,26.9,20.7,32.1     c2.7,1.1,5.6,1.9,8.5,1.5c2.9-0.4,6.4-2.4,7.1-5.4c1-4.1,1.7-8.3,2.1-12.4c0-0.3,0-0.7,0.1-1     C423.9,187.9,423.3,182.4,421.1,177.6z"/><polygon class="st4" points="422.6,215.1 406.6,231.4 407.6,183.6 422.6,183.6    "/><path class="st10" d="M406.9,219.8c7.3-4.2,12.9-16,15.7-22.9l0-13.3h-15L406.9,219.8z"/><path class="st4" d="M396.5,161.6c0,0-18.2,29.8-3,45.9s33.4-17.5,33.4-17.5S427.6,148.2,396.5,161.6z"/><path class="st3" d="M435.6,167.6c-0.3-0.5-0.6-1-1-1.5c-1-1.4-2.2-2.7-3.4-3.9c-2.5-2.4-5.3-4.3-8.4-5.9     c-6.5-3.2-13.8-4.5-21.1-4.6c-3.8,0-7.8,0.3-11.2,2.2c-3.3,1.9-5.8,5.7-5.1,9.5c0.5,2.5,2.5,5.3,5,6.2c0.8,0.3,1.4,0.7,2,1.2     c1.5,0.9,3.1,1.7,4.7,2.3c3.3,1.2,6.8,1.7,10.3,1.5c1.8-0.1,3.6-0.4,5.3-0.9c0,0,2.4,4.6,2.7,5c1,1.6,2.3,3.1,3.4,4.7     c0.3,0.5,0.4,1,0.6,1.6c0.3,0.9,0.7,1.7,1.1,2.6c0.7,1.8,1.2,3.6,1.5,5.5c0.8,4.2,0.7,8.5-0.2,12.7c-0.8,3.3-1.8,7.2,0.6,9.5     c2.6-7.6,10.6-11.7,15.3-18.2c4.2-5.9,5.5-13.9,3.2-20.8c-0.4-1.4-1-2.8-1.8-4c-0.5-0.7-1.2-1.2-1.8-1.9     C436.7,169.5,436.1,168.5,435.6,167.6z"/><ellipse class="st4" cx="418.1" cy="186.9" rx="7" ry="5.3" transform="matrix(0.5 -0.866 0.866 0.5 47.2341 455.5648)"/><g><path class="st3" d="M419.2,191c-0.1,0-0.2-0.1-0.3-0.2c-0.1-0.2-0.1-0.4,0.1-0.5c0.7-0.4,1.3-1.1,1.8-1.9      c1.2-2,0.9-4.4-0.5-5.2c-0.8-0.5-1.9-0.4-2.9,0.2c-0.2,0.1-0.4,0-0.5-0.1c-0.1-0.2,0-0.4,0.1-0.5c1.3-0.7,2.6-0.8,3.6-0.2      c1.8,1.1,2.2,3.9,0.8,6.2c-0.5,0.9-1.2,1.6-2,2.1C419.4,191,419.3,191,419.2,191z"/></g><path class="st3" d="M395.1,198.5c1.6,0.7,4.8,1.5,8.6-1c0.3-0.2,0.8,0.1,0.6,0.5c-1.3,3.1-5,10-9.7,1.1     C394.3,198.7,394.7,198.3,395.1,198.5z"/><path class="st3" d="M450.1,164.2c-0.7-3.8-2.1-7.6-4.5-10.5c-2.5-2.9-6.3-5-10.1-4.6c-3.8,0.3-7.5,3.4-7.9,7.2     c-0.3,3.5,1.9,6.7,4,9.5l5.8,6.6c1.7,1,2.7,3,4.5,3.8c2.7,1.3,6.2-0.5,7.6-3.1C450.8,170.4,450.6,167.2,450.1,164.2z"/><linearGradient gradientUnits="userSpaceOnUse" id="SVGID_6_" x1="404.9818" x2="474.5157" y1="233.2027" y2="233.2027"><stop offset="0" style="stop-color:#A00E11"/><stop offset="6.770599e-02" style="stop-color:#B01A14"/><stop offset="0.2138" style="stop-color:#CD3019"/><stop offset="0.3704" style="stop-color:#E3411D"/><stop offset="0.5404" style="stop-color:#F34E20"/><stop offset="0.7335" style="stop-color:#FC5521"/><stop offset="1" style="stop-color:#FF5722"/></linearGradient><path class="st15" d="M413.8,217c0.2-0.3,0.5-0.5,0.8-0.8c1-0.9,2-1.8,3-2.7c2.1-1.7,4.3-3.3,6.7-4.4c2.5-1.2,5.2-1.9,7.9-1.8     c0.5,0,1-0.1,1.5,0c1.1,0.2,2.2,0.8,3.4,1.1c2.3,0.6,4.7,1,7.1,0.7c3.3-0.3,6.4-1.8,9.6-2.7c3.2-1,6.7-1.5,9.7,0     c3.1,1.4,5.2,4.6,6.7,7.9c0.4,0.8,0.8,1.7,1.1,2.6c0.3,0.8,0.7,1.6,0.8,2.4c0.1,0.9,0.2,1.6,0.5,2.4c0.4,1.1,0.7,2.2,0.9,3.4     c0.5,2.3,0.7,4.6,0.8,6.9c0,0.8,0,1.5,0.1,2.3c0.1,0.8,0.1,1.7,0.1,2.5c0,1.7,0,3.3-0.2,5c-0.2,2.3-0.7,4.7-1.3,6.9     c-0.1,0.5-0.3,1-0.5,1.4c-0.2,0.3-0.4,0.5-0.5,0.8c-0.2,0.3-0.3,0.6-0.4,0.9c-0.5,1.1-1,2.1-1.6,3.1c-1.2,1.9-2.8,3.6-4.7,4.7     c-1.2,0.7-2.5,1.2-3.9,1.3c-1.3,0.1-2.6,0-3.8-0.3c-0.8-0.3-1.5-0.5-2.2-1.1c-0.7-0.6-1.3-1.2-1.9-1.8c-1.2-1.3-2.2-2.8-2.9-4.4     c-2.4-5.1-2.1-11.1-4-16.4c-1.1-3.2-2.9-6-4.6-8.9c-0.8-1.2-1.6-2.5-2.5-3.6c-1-1.3-2.2-2.6-3.6-3.5c-0.6-0.4-1.4-0.9-2.2-1     c-0.3,0-0.6-0.1-0.9-0.2c-2.1-0.9-4.1-1.6-6.4-1.7c-1.9-0.1-3.9,0.3-5.7,1c-1.5,0.6-2.9,1.5-4,2.7c-0.6,0.6-1,1.2-1.5,1.9     c-0.1,0.1-0.2,0.2-0.3,0.3c-0.8,0.6-1.4,1.4-2.1,2.1c-1.9,1.9-3.7,3.8-5.5,5.7c-0.4,0.4-1.6,1.7-2.1,0.8     c-0.3-0.5,0.2-1.8,0.4-2.3c0.2-0.6,0.5-1.2,0.8-1.8c0.3-0.7,0.6-1.3,0.9-2c0.6-1.2,1.3-2.3,2.1-3.4c1.3-1.9,2.9-3.5,4.1-5.5     C413.5,217.3,413.6,217.1,413.8,217z"/><path class="st14" d="M435,207.7l1.9,1.3c3.9,3.1,8.6,5.7,13.2,4.4c1.7-0.5,3.3-1.4,5-1.8c2.3-0.5,4.7,0,6.9-0.5     c1.6-0.4,3.1-1.5,3.8-3.1c-0.7-0.7-1.5-1.2-2.4-1.6c-3-1.4-6.5-0.9-9.7,0c-3.2,1-6.3,2.4-9.6,2.7c-2.4,0.3-4.8-0.1-7.1-0.7     C436.4,208.2,435.7,207.9,435,207.7z"/><g><path class="st12" d="M408.2,227.1c-1.6,1.9-2.4,4.4-2.8,6.8c-0.4,2.8-0.3,5.5-0.3,8.3c0,1.5-0.1,2.9-0.4,4.4      c-0.2,1.4-0.7,2.7-1.2,4c-1.1,2.6-2.5,5-3.5,7.5c-1,2.5-1.7,5.3-1.2,8.1c0.1,0.3,0.1,0.7,0.2,1c0.1,0.5,1,0.3,0.8-0.2      c-0.7-2.6-0.2-5.3,0.7-7.8c0.9-2.6,2.3-4.9,3.4-7.4c0.6-1.2,1-2.5,1.4-3.9c0.3-1.4,0.5-2.9,0.6-4.3c0.1-2.8-0.1-5.6,0.2-8.3      c0.2-2.4,0.8-4.8,2.2-6.8c0.2-0.2,0.3-0.5,0.5-0.7c0.1-0.2,0.2-0.4,0-0.6C408.6,227,408.3,226.9,408.2,227.1L408.2,227.1z"/></g><g><path class="st12" d="M405.1,227.7c-2.1,2.3-2,5.6-3,8.3c-1,2.7-2.9,5-4.8,7.2c-2,2.3-4,4.5-5.5,7.2c-1.5,2.8-2.5,5.9-3.1,9.1      c-0.6,3.2-0.9,6.4-1.2,9.7c0,0.4-0.1,0.8-0.1,1.2c0,0.2,0.2,0.4,0.4,0.4c0.2,0,0.4-0.2,0.4-0.4c0.2-3.2,0.5-6.4,1.1-9.5      c0.5-3.1,1.3-6.2,2.7-9c0.7-1.4,1.5-2.7,2.4-3.9c0.9-1.2,1.8-2.3,2.8-3.4c1.9-2.2,3.9-4.4,5.2-7.1c0.6-1.3,1-2.8,1.3-4.2      c0.3-1.4,0.6-2.8,1.4-4.1c0.2-0.3,0.4-0.6,0.6-0.8C406,227.9,405.4,227.3,405.1,227.7L405.1,227.7z"/></g><path class="st16" d="M414.8,223.8c0.9-1.1,2-2.1,3.1-3c1.2-0.9,2.4-1.6,3.8-2.1c0.7-0.3,1.4-0.5,2.1-0.6l0.5-0.1     c0.2,0,0.4-0.1,0.5-0.1c0.4,0,0.7-0.1,1.1-0.1c1.5-0.1,3,0.2,4.4,0.6c1.4,0.4,2.8,1.1,4,1.8c0.6,0.4,1.2,0.8,1.8,1.3l0.4,0.3     c0.1,0.1,0.1,0.1,0.2,0.2l0.2,0.2l0.8,0.7c2.2,2,4.1,4.3,5.6,6.8c0.8,1.3,1.4,2.6,2,3.9c0.6,1.4,1,2.7,1.4,4.2l0.1,0.5     c0,0.2,0.1,0.4,0.1,0.5l0.1,0.5l0.1,0.3l0,0.3l0.2,1.1c0.1,0.4,0.1,0.7,0.2,1.1c0.2,1.4,0.5,2.8,0.9,4.2c0.2,0.7,0.4,1.4,0.6,2.1     c0.2,0.7,0.4,1.4,0.7,2.1c0.5,1.4,1.1,2.7,1.8,3.9c0.3,0.6,0.7,1.3,1.1,1.8c0.4,0.6,0.9,1.2,1.3,1.7c1,1.1,2.1,2,3.4,2.6     c-0.7-0.3-1.3-0.7-1.9-1.1c-0.6-0.4-1.1-0.9-1.7-1.4c-0.5-0.5-1-1.1-1.4-1.7c-0.4-0.6-0.8-1.2-1.2-1.8c-1.5-2.5-2.5-5.3-3.2-8.1     c-0.2-0.7-0.4-1.4-0.5-2.1c-0.2-0.7-0.3-1.4-0.4-2.1c-0.1-0.4-0.1-0.7-0.2-1.1l-0.2-1.1l0-0.3l-0.1-0.3l-0.1-0.5     c0-0.2-0.1-0.4-0.1-0.5l-0.1-0.5c-0.4-1.4-0.8-2.8-1.4-4.1c-0.6-1.3-1.2-2.6-1.9-3.8c-1.5-2.5-3.3-4.7-5.4-6.7l-0.8-0.7l-0.2-0.2     c-0.1-0.1-0.1-0.1-0.2-0.2l-0.4-0.3c-0.6-0.5-1.2-0.8-1.7-1.3c-1.2-0.8-2.5-1.4-3.9-1.8c-2.7-0.9-5.7-0.9-8.4,0.1     c-1.4,0.5-2.6,1.2-3.8,2c-0.6,0.4-1.2,0.9-1.7,1.3C415.8,222.7,415.3,223.2,414.8,223.8z"/><path class="st12" d="M420.9,193.9c0,1.4-1.1,2.5-2.5,2.5c-1.4,0-2.5-1.1-2.5-2.5c0-1.4,1.1-2.5,2.5-2.5     C419.8,191.4,420.9,192.5,420.9,193.9z"/><g><path class="st3" d="M393.4,171.3c1.4,2.4,3.9,4.2,6.6,4.6c3.1,0.4,6.1-0.6,9-1.3c1.7-0.4,3.3-0.6,5-0.4c0.2,0,0.4-0.2,0.4-0.4      c0-0.3-0.2-0.4-0.4-0.4c-3-0.4-5.9,0.7-8.8,1.3c-1.4,0.3-2.9,0.6-4.3,0.5c-1.3-0.1-2.7-0.5-3.8-1.1c-1.3-0.7-2.3-1.8-3.1-3.1      C393.9,170.4,393.1,170.8,393.4,171.3L393.4,171.3z"/></g><g><path class="st3" d="M421.8,191.5c0.9,4.1,0.4,8.6-1.3,12.4c-0.5,1.1-1.1,2.2-1.8,3.2c-0.3,0.5,0.4,0.9,0.7,0.4      c2.5-3.6,3.7-8.1,3.6-12.5c0-1.3-0.2-2.5-0.5-3.7C422.5,190.8,421.7,191,421.8,191.5L421.8,191.5z"/></g><g><path d="M415.3,461.7c-0.2,0-0.4-0.2-0.4-0.4l-6.6-102l-19-9.5c-0.2-0.1-0.3-0.3-0.2-0.5c0.1-0.2,0.3-0.3,0.5-0.2l19.4,9.7      l0,0.2l6.6,102.2C415.7,461.5,415.5,461.7,415.3,461.7C415.3,461.7,415.3,461.7,415.3,461.7z"/></g><g><path class="st3" d="M398.6,293.7C398.6,293.7,398.6,293.7,398.6,293.7c-0.2,0-0.4-0.2-0.4-0.4c1.3-19.5,16.6-57.6,16.8-58      c0.1-0.2,0.3-0.3,0.5-0.2c0.2,0.1,0.3,0.3,0.2,0.5c-0.2,0.4-15.5,38.4-16.8,57.8C399,293.5,398.8,293.7,398.6,293.7z"/></g><g><path class="st3" d="M360.9,302.1c-0.2,0-0.3-0.1-0.4-0.3c-0.1-0.2,0-0.4,0.2-0.5l38.1-12.7c0.2-0.1,0.4,0,0.5,0.2      c0.1,0.2,0,0.4-0.2,0.5L361,302.1C360.9,302.1,360.9,302.1,360.9,302.1z"/></g><g><path class="st13" d="M296.6,335.6c-0.2,0-0.4-0.2-0.4-0.4c0-0.2,0.1-0.4,0.4-0.4l37.7-2.2l-13.7-5c-0.2-0.1-0.3-0.3-0.2-0.5      c0.1-0.2,0.3-0.3,0.5-0.2l14.9,5.5c0.2,0.1,0.4,0.3,0.3,0.5c0,0.2-0.2,0.4-0.5,0.4L296.6,335.6      C296.6,335.6,296.6,335.6,296.6,335.6z"/></g><path class="st17" d="M402.3,201.5c-0.3-0.3-0.7-0.5-1.2-0.5c-1,0-1.7,0.8-1.7,1.7c0,0.2,0,0.4,0.1,0.6     C400.6,203.3,401.5,202.5,402.3,201.5z"/><path class="st17" d="M403.4,199.8c-0.1,0-0.1,0-0.2,0c-1,0-1.7,0.8-1.7,1.7c0,0.3,0.1,0.5,0.2,0.8     C402.4,201.5,403,200.6,403.4,199.8z"/><g><path class="st3" d="M400.1,195.6h-3.5c-0.4,0-0.8-0.2-1-0.6c-0.2-0.4-0.2-0.8,0-1.1c1.9-3.1,1.3-6.3,1.3-6.3      c0-0.2,0.1-0.4,0.3-0.4c0.2,0,0.4,0.1,0.4,0.3c0,0.1,0.7,3.5-1.4,6.9c-0.1,0.2,0,0.3,0,0.4c0.1,0.1,0.2,0.2,0.3,0.2h3.5      c0.2,0,0.4,0.2,0.4,0.4S400.3,195.6,400.1,195.6z"/></g><g><path class="st3" d="M407.3,178.9c-0.1,0-0.2,0-0.3-0.1c-2.2-2.5-6.2-1.2-6.2-1.2c-0.2,0.1-0.4,0-0.5-0.2      c-0.1-0.2,0-0.4,0.2-0.5c0.2-0.1,4.5-1.5,7,1.4c0.1,0.2,0.1,0.4,0,0.5C407.5,178.9,407.4,178.9,407.3,178.9z"/></g><g><path class="st3" d="M388.1,178.6c-0.1,0-0.2,0-0.3-0.1c-0.1-0.2-0.1-0.4,0-0.5c2.8-2.6,6.9-0.8,7.1-0.7      c0.2,0.1,0.3,0.3,0.2,0.5c-0.1,0.2-0.3,0.3-0.5,0.2c0,0-3.9-1.7-6.3,0.6C388.3,178.6,388.2,178.6,388.1,178.6z"/></g><path class="st3" d="M404,184.5c0,0.6-0.5,1.1-1.1,1.1c-0.6,0-1.1-0.5-1.1-1.1c0-0.6,0.5-1.1,1.1-1.1     C403.5,183.4,404,183.9,404,184.5z"/><path class="st3" d="M392.4,184.5c0,0.6-0.5,1.1-1.1,1.1s-1.1-0.5-1.1-1.1c0-0.6,0.5-1.1,1.1-1.1S392.4,183.9,392.4,184.5z"/><path class="st18" d="M413,192.3c0,2.3-1.8,4.1-4.1,4.1c-2.3,0-4.1-1.8-4.1-4.1c0-2.3,1.8-4.1,4.1-4.1     C411.1,188.2,413,190.1,413,192.3z"/><path class="st18" d="M387.9,196.4c2.1-0.1,3.8-1.9,3.8-4.1c0-2.3-1.8-4.1-4.1-4.1c-0.1,0-0.1,0-0.2,0     C387.3,191,387.4,193.7,387.9,196.4z"/><g><path class="st3" d="M391.4,190.3c-3.2,0-5.8-2.6-5.8-5.8c0-3.2,2.6-5.8,5.8-5.8c3.2,0,5.8,2.6,5.8,5.8      C397.1,187.7,394.5,190.3,391.4,190.3z M391.4,179.5c-2.8,0-5,2.3-5,5c0,2.8,2.3,5,5,5c2.8,0,5-2.3,5-5      C396.4,181.8,394.1,179.5,391.4,179.5z"/></g><g><path class="st3" d="M403.4,190.3c-3.2,0-5.8-2.6-5.8-5.8c0-3.2,2.6-5.8,5.8-5.8c3.2,0,5.8,2.6,5.8,5.8      C409.1,187.7,406.5,190.3,403.4,190.3z M403.4,179.5c-2.8,0-5,2.3-5,5c0,2.8,2.3,5,5,5c2.8,0,5-2.3,5-5      C408.4,181.8,406.1,179.5,403.4,179.5z"/></g><g><path class="st3" d="M408.5,183.4c-0.2,0-0.3-0.1-0.4-0.3c-0.1-0.2,0.1-0.4,0.3-0.5l9-2.4c0.2-0.1,0.4,0.1,0.5,0.3      c0.1,0.2-0.1,0.4-0.3,0.5L408.5,183.4C408.6,183.4,408.6,183.4,408.5,183.4z"/></g></g><g><linearGradient gradientUnits="userSpaceOnUse" id="SVGID_7_" x1="95.9383" x2="207.2789" y1="255.7692" y2="255.7692"><stop offset="0" style="stop-color:#4361EE"/><stop offset="1" style="stop-color:#480CA8"/></linearGradient><path class="st19" d="M205.1,259.3c-16.6-23.6-45.8-9.3-64.4,2.4c-11.6-23.3-36.8-50.4-36.8-50.4c-9.1-5.9-7.8,8.9-7.8,8.9     c2,40.9,14.4,61.1,21.9,69.7c1.1,2.8,3,5,5.3,6.8c5.6,4.5,12.8,5.9,18.6,4.1C161.7,294.9,219.2,279.4,205.1,259.3z"/><g><path class="st20" d="M124.2,258.9c0.2-0.1,0.9-0.8,0.8-0.5c0.9-0.9,1.8-2.7,3-3.9c0-0.1,0.1-0.3,0.4-0.5      c0.6-0.6,1.1-1.1,1.7-1.7c0.6-0.6,1.2-1.2,1.7-1.9c0.3-0.2,0.7-0.3,1-0.4c0.5-0.5,0.2-0.3-0.1-0.3c-0.1,0-0.2,0-0.2-0.1      c0-0.1,0.1-0.1,0.2-0.2c0.1-0.1,0.3-0.3,0.5-0.5c0,0,0,0,0,0c-0.4-0.6-0.7-1.1-1.1-1.7c-0.1,0.1-0.3,0.2-0.4,0.3      c-0.4,0.4-0.6,0.7-0.8,1c-0.4,0.3-0.2,0-0.2-0.1c-1.1,0.9-1.6,1.5-2.1,2c-0.5,0.5-0.8,1.1-1.5,2.1l-0.4,0      c-0.2,0.3-0.9,1-1.8,1.9c-0.9,0.9-1.9,2.1-2.7,3.2c0,0,0-0.1,0.1-0.3c-0.9,1.3-2.1,2.6-3.1,3.9c-1,1.2-1.8,2.3-1.8,3.1      c-0.3,0.6-0.6,1.2-0.9,1.8c1.5-2.1,0.1,0.5,0.8-0.3c-0.5,0.9-1.7,2.1-1,1l0.1-0.1c-0.1-0.6-1.9,2.6-2.2,2.4      c-1.4,2.1-2.9,4.1-4.6,5.9c-0.4,0.4-0.8,0.8-1.1,1.1c0.3,0.6,0.6,1.2,0.9,1.8c0.5-0.6,0.8-0.9,1.1-1.2c0.3-0.3,0.5-0.4,0.8-0.5      c0.3-0.1,0.5-0.3,0.9-0.6c0.2-0.1,0.4-0.3,0.6-0.6c0.2-0.2,0.4-0.5,0.6-0.8c-0.4,0.5-1.1,1.2-0.8,0.5c0.5-0.5,1.1-1.2,1.5-1.5      c1.4-2-0.4,0.2,0.1-0.8c0.7-0.5,0.6-1.1,1.1-2l0.2,0.1c1.7-2.2,0-0.9,1.5-2.9l-0.3,1.1l0.6-1.1l0.1,0.4c0.6-1.3,0.9-1.6,1.7-2.7      c-0.3,0.2-0.3-0.4,0.4-1.4c0.6-0.6-0.1,0.5,0.9-0.9c-0.1,0.4-0.2,0.9-0.8,1.3c0,0.1-0.1,0.4-0.1,0.5c0.6-0.6,1.3-1.8,1.7-2.3      c-0.1,0.2-0.3,0.4-0.4,0.5c0.4-0.7,0.8-1.5,1.2-2.2c0.3-0.3,0.2,0,0.1,0.3c0.3-0.4,0.4-0.8,0.9-1.4c0,0.3,0.2,0.4-0.3,1.3      C123.3,260.3,123.7,259.6,124.2,258.9z"/><path class="st20" d="M128,254.6l0-0.1L128,254.6C128,254.5,128,254.6,128,254.6z"/><path class="st20" d="M149.2,298.4c-0.1-0.3-0.1-0.7-0.2-1.2c-0.1-0.4-0.1-0.9-0.1-1.4c0-0.3,0-0.5,0-0.8c0-0.3,0-0.5,0.1-0.8      l0.3-0.4c0.1-0.5,0.1-1.1,0.2-1.6c0.1,0.5,0.3,1.5,0.3,2.6c0,0.5,0.1,1.1,0.1,1.6c0,0.5,0,1-0.1,1.4c0.4-0.8,0.3-0.2,0.6-1.5      c0.1-0.2,0.1,0,0.1,0.3c0,0.3-0.1,0.7-0.2,0.9c0.2-0.5,0.3-1,0.5-1.6c0.2-0.5,0.3-1,0.4-1.6c-0.1,0-0.1-0.1-0.1-0.4      c0-0.2,0-0.5,0-0.9c0.1-0.6,0.1-1.2-0.1-1.2c-0.1,1.2-0.2,2.3-0.4,3.5c-0.2,0-0.3-0.5-0.3-1.3c0-0.4,0-0.9,0.1-1.4      c0-0.5,0.1-1.1,0.2-1.6c0.2-0.5,0.5,0.5,0.6,0.5c0-0.2,0-0.7,0.1-1.2c0.1-0.5,0.1-1,0.2-1.1l0,1c0.3-1.2-0.1-2.1,0.4-3.6      c0.1-0.5,0.6-1.5,0.4-1.6c-0.5,0.8-1.7,0.8-1.9,0.2c0-0.1,0.2-0.7,0.4-1.5c0.2-0.7,0.4-1.5,0.5-1.8c0.4-0.8,0.6,1.3,0.9,0.6      c-0.1,0-0.2-0.5-0.2-0.7c0.1-0.5,0.3,0.2,0.3-0.9c-0.3-0.2,0.2-2.4-0.2-0.6c0-1.2,0.2-1.2,0.3-2.6c-0.3,0.4-0.7-1.3-0.7-2.4      c0.1,0.1,0.2-0.2,0.3-0.3c0.2-2.4,0.5-3.6,0.7-5.8c0.1-0.2,0.3-1.2,0.4-0.8c0-0.3-0.1-0.6,0-1.3c0.5-1.3-0.1,1.5,0.3,0.6      c-0.2-0.1-0.1-1.8,0-2.7c-0.4,0.2-0.4,2.2-0.4,3.2c-0.4,0-0.7-1.8-0.5-4.1c0.2-1.8,0.4-0.7,0.4-1.1c0.1-0.4,0.2-0.8,0.2-1.1      c0-0.3,0.1-0.6,0.1-0.8c0-0.5,0-0.8,0-1.2c0-0.3,0-0.7,0.1-1.1c0.1-0.4,0.2-0.9,0.5-1.6c0.6-1,0.5,0.1,0.8-0.1      c-0.1,0.4-0.2,0.7-0.2,1c-0.1,0.3-0.2,0.5-0.3,0.8c-0.1,0.2-0.2,0.5-0.3,0.7c-0.1,0.2-0.1,0.5-0.2,0.7c0.1-0.4,0.3-0.8,0.4-1.2      c0,0.5-0.2,1.5-0.4,2c0.2-0.4,0.5-1.9,1-3.5c0.4-1.6,1-3.4,1.6-4.6c0-0.1,0-0.2,0.1-0.3c-0.1,0-0.2,0.1-0.3,0.1l0,0.1      c-0.1,0.2-0.2,0.1-0.2,0c-0.2,0.1-0.5,0.2-0.7,0.3c0,0.1,0,0.1,0,0.2c-0.3,0.7,0-0.3-0.2,0c0,0.3-0.1,0.6-0.1,1      c-0.2,0-0.9,1.7-0.6,0c-0.2,0.5-0.3,1-0.5,1.4c-0.4,0.8-0.8,2-0.8,2.8c-0.2,0.7-0.2,1.8-0.2,1.2c-0.1,0.4-0.1,0.8-0.2,1.2      c-0.1,0.4-0.1,0.8-0.2,1.2l-0.1,0c-0.5,2.3-0.4,4.8-1.1,7.4c0,0.8,0,1.6-0.2,2.9l-0.2,0.2c0,1-0.4,3-0.3,3.4      c-0.6,1-0.5,4.8-0.7,6.5l0.3,0.1c-0.1,1.2-0.2,2.3-0.3,3.8l0.2-0.1c0,1.3-0.6,3.2-1,5.2c-0.1-0.2,0.1-0.6,0.2-1      c-0.5,1.1-0.6,2.4-0.8,3.6c-0.2,1.2-0.4,2.4-0.9,3.4c-0.1,0.5-0.2,0.9-0.4,1.2c0,0,0-0.1,0-0.1c0,0.1,0,0.1-0.1,0.2      c0,0.1-0.1,0.1-0.1,0.2c0,0,0,0,0,0c0,0,0,0,0,0c0,0,0,0,0,0c0.7-0.2,1.4-0.4,2.2-0.6C149.2,298.6,149.2,298.5,149.2,298.4z       M153.6,257.4C153.6,257.4,153.6,257.4,153.6,257.4C153.3,258.2,153.4,257.9,153.6,257.4z"/><path class="st20" d="M113.6,274.1c0.1-0.1,0.1-0.1,0.1-0.2C113.7,273.9,113.6,274,113.6,274.1z"/><path class="st20" d="M129.4,298.1c-0.1,0.2-0.2,0.2-0.2,0.1c0-0.1,0-0.4,0-0.6c0-0.5,0.1-1.2-0.2-1.3c0.1-0.1,0.1-0.3,0.1-0.4      c0-0.1,0.1-0.1,0.2,0.2c-0.1-0.5-0.1-0.9-0.1-1.3c0-0.2,0-0.4,0-0.5c0-0.2,0-0.3,0-0.5c0-0.3,0-0.6,0-0.9c0-0.3,0-0.6-0.1-1      c0.2-0.2,0.2,0.4,0.3,0.2c0-0.2-0.1-0.6,0-0.8c0.1-0.2,0.1,0.3,0.1,0.6c0.1-1,0-1.5-0.1-1.9c-0.1-0.3-0.3-0.4-0.5-0.5      c0.3-1,0.4-1.5,0.2-2.3c0.2-0.3,0.4-0.9,0.3,0.3c0.1-0.3,0.3-1.4,0.5-2.4c0.2-1,0.3-1.9,0.2-1.9c0.1-0.2,0.2-1,0.2-1.1      c0.2-0.8,0.3-1.2,0.4-1.6c0.1-0.4,0.2-0.8,0.4-1.6l-0.2,0.4c-0.2-0.7,0.3-1.3,0.5-2.5l0,0c0.5-1.3,0.6-1.6,0.7-2      c0.1-0.3,0.1-0.6,0.7-1.9l-0.3,0.1c-0.2-0.2,0-0.8,0.4-1.5c0.2-0.4,0.4-0.8,0.6-1.2c0.2-0.4,0.3-0.8,0.4-1.2l-0.3,0.5      c0.1-0.9,1.5-2.2,1.8-3c0.1-0.2,0,0.3-0.1,0.6c1.1-2.1-0.2-0.4,0.3-2.1c0.3-0.3,0.3,0.5,0.7-0.6c0.3-0.5,0.6-3.5,1.4-4.9      c-0.2,0.3-0.5,0.6-0.3-0.2c0.2-0.6,0.6-1.4,0.9-2.1c-0.4-0.8-0.9-1.6-1.4-2.4c-0.1,0.3-0.2,0.3-0.1,0l-0.6,2.2l0,0      c0,0.4-0.1,1.2-0.2,1.6c-0.3,0.6,0-0.3-0.1-0.2l-0.3,1.4c-0.3,0.5-0.1-0.7,0.2-1.6c-1.1,1-0.2,1.1-1.5,3.6l0.3-1.3      c-0.6,0.7-0.8,1.7-1.5,3c0.2-0.3,1.5-2.6,1.2-1.1c-0.2,0.4-0.4,0.9-0.5,1.7c-0.2-0.1-0.4,0.7-0.7,1.6l-0.3-0.2      c-0.3,1-0.1,1-0.1,1.7c-0.4,1.1-0.7,1.3-1,1.5c-0.6,1.8,0.8-1.1,0.1,1c-0.3,0.7-0.5,1.4-0.7,2.1c-0.2,0.7-0.3,1.4-0.5,2.4      c-0.4,1-0.1-0.2-0.3,0.1l0,1c-0.1,0.2-0.1,0.1-0.2,0.1c-0.1,0.8,0.3,0.2,0,1.4c0.1,0.2-0.2,0.8-0.5,1.6      c-0.3,0.8-0.7,1.7-0.7,2.5c-0.2,0.4-0.2-0.2-0.3-0.1c-0.1,1.1-0.2,1.6-0.2,2c0,0.4,0,0.8,0,1.7c-0.1,0.2-0.2,0.5-0.2,0.7      l-0.2,0.8c0.2-0.5,0.3-0.4,0.4,0c0.1,0.4,0.1,1.1,0.1,1.7c0.1-0.2,0.2-0.4,0.2-0.5c0.1-0.2,0.1-0.3,0.2-0.4c0,0.3,0,0.7-0.1,1      l-0.1,1c-0.1,0.2-0.2,0-0.3-0.3c0,0.1,0,0.3,0,0.4c-0.2,0.7-0.4,0.3-0.5-0.2c0.1-0.2,0.2-0.5,0.3-0.7c-0.1-0.5-0.3-1-0.5-0.9      c0,0.1,0,0.4,0,0.7c0-0.1-0.1-0.2-0.1-0.2c0,0.1,0,0.3,0,0.6l-0.4,0.4l0.1,0.1c-0.2,0.9-0.4,1.8-0.5,2.7c0.1,1,0.3,1.9,0.5,2.9      c0.2,1,0.4,2.2,0.8,3.7c-0.2-0.3-0.3-0.4-0.4-0.3c-0.1,0.1-0.2,0.2-0.4,0.2c0.1-0.4,0-1-0.1-1.7c-0.1-0.3-0.1-0.7-0.2-1.1      c0-0.4-0.1-0.8,0-1.2c0,0.8-0.2,0.7-0.2,0.4c0.1,1,0.3,1.9,0.5,2.9c-0.3,0-0.1,0.6-0.1,1.4c0.1-0.2,0.2-0.1,0.3,0.1      c0.1,0.2,0.2,0.4,0.3,0.8c0.6,0.3,1.3,0.5,1.9,0.8C129.5,299.6,129.4,298.8,129.4,298.1z M134.8,261.2c0.1,0.5-0.1,0.8-0.4,1.3      C134.5,262.2,134.6,261.4,134.8,261.2z M127.7,290.7c-0.1-0.3,0-0.7,0.2-1.2C127.8,289.9,127.8,290.3,127.7,290.7z"/><path class="st20" d="M128,254.6l-0.2,0.6C128.4,254.5,128.1,254.7,128,254.6z"/><path class="st20" d="M103,255.8l0-0.1c-0.1,0.6-0.3,1.3-0.6,2.1c0.1-0.4-0.1-0.1-0.3,0.2c-0.1,0.1-0.2,0.3-0.2,0.3      c0.3,0.9,0.5,1.8,0.8,2.7c0.1-0.2,0.1-0.4,0.2-0.6c0.2-0.6,0.5-1.3,0.8-2.1c-0.2,0.3-0.6,0.5-0.1-0.8c0.2,0.4,0.5-0.2,0.9-1      c0.3-0.7,0.7-1.6,1.2-2c-0.2,0.2,0.1-0.6,0.4-1.4c0.3-0.8,0.6-1.6,0.1-1c0.5-1,0.3,0,0.8-0.7c0.2-0.6,0.5-1.3,0.9-2      c0.2-0.3,0.3-0.7,0.5-1c0.1-0.2,0.2-0.3,0.3-0.5c0.1-0.2,0.2-0.3,0.3-0.5c0.2-0.3,0.4-0.7,0.6-1c0.2-0.3,0.4-0.7,0.6-1      c0.4-0.7,0.9-1.4,1.3-2.2c-0.1-0.1-0.5,0.3-0.2-0.4l1.3-1.3c0.3-0.6-0.1-0.8,0.8-1.6c-0.2,0.1-0.4,0.3-0.2-0.1      c0.2-0.3,0.5-0.7,0.7-1c0.2-0.3,0.5-0.7,0.7-1c0.5-0.7,1-1.4,1.5-2c0.2-0.3,0.5-0.7,0.7-1c0.3-0.3,0.5-0.7,0.8-1      c0.5-0.7,1-1.3,1.5-2c0.3-0.4,0.6-0.8,0.9-1.2c-0.4-0.5-0.7-0.9-1.1-1.4c-0.4,0.4-0.8,0.9-1.2,1.4c-0.5,0.6-1,1.2-1.7,2l0.4-0.1      c-0.5,0.7-0.7,0.8-1,1c-0.3,1,1.5-1.9,1.2-0.9c-0.3,0.1-0.6,0.5-1,1c-0.4,0.5-0.8,1.1-1.3,1.7c-0.4,0.6-0.8,1.2-1.2,1.6      c-0.4,0.5-0.7,0.8-0.9,0.9c-0.7,1.1,0.4-0.2-0.3,0.9l-0.3,0.2l0,0.4c-0.5,0.7-0.9,1-1,0.9c0.1-0.2,0.3-0.5,0.4-0.7      c-0.2,0.2-0.4,0.5-0.6,0.8c-0.2,0.3-0.4,0.6-0.5,0.9c-0.3,0.5-0.5,1-0.7,1.2c0.2-0.3,0.4-0.6,0.7-1c-1.7,3.1-4,6.9-5.1,10.2      l0.2-0.2c-0.2,0.6-0.4,1-0.6,1.4c-0.1,0.3-0.3,0.6-0.4,0.8c-0.1,0.2-0.3,0.5-0.4,0.9C103.4,254.6,103.2,255.1,103,255.8z"/><path class="st20" d="M109.2,242.2C109.2,242.2,109.2,242.2,109.2,242.2C109.2,242.3,109.2,242.2,109.2,242.2z"/><path class="st20" d="M101.8,258.1C101.8,258.1,101.8,258,101.8,258.1C101.8,258,101.8,258,101.8,258.1      C101.8,258.1,101.8,258.1,101.8,258.1z"/><path class="st20" d="M105.7,254.4C105.6,254.4,105.6,254.4,105.7,254.4C105.6,254.4,105.6,254.4,105.7,254.4z"/><path class="st20" d="M111,239.3c0,0,0.1-0.1,0.1-0.1C111.1,239.1,111.1,239.2,111,239.3z"/><path class="st20" d="M111.1,276.9c-0.5,0.5-0.8,0.8-0.9,0.9c-0.2,0.1-0.2,0.1-0.2,0.1c0-0.1,0-0.3-0.3-0.1      c0.1,0.1,0.1,0.2,0.2,0.3c0.2-0.2,0.4-0.3,0.6-0.5C110.7,277.4,110.9,277.2,111.1,276.9z"/><path class="st20" d="M152.5,282.2c-0.1,0.3-0.1,0.5-0.2,0.7C152.4,282.9,152.5,282.8,152.5,282.2z"/><path class="st20" d="M136.2,257l0.1,0.1C136.2,257,136.2,256.9,136.2,257z"/><path class="st20" d="M136.9,254.8c0,0.1,0,0.1,0,0.1L136.9,254.8C136.9,254.8,136.9,254.8,136.9,254.8z"/><path class="st20" d="M127.8,287.4c0.1-0.1,0.1-0.1,0.2-0.1C127.9,287.1,127.8,287.1,127.8,287.4z"/><path class="st20" d="M128,286.3c-0.1,0.2-0.2,0.5-0.3,1L128,286.3z"/><path class="st20" d="M151.8,266.6c-0.2,0.7-0.3,1.2-0.3,1.7C151.6,267.5,151.9,266.8,151.8,266.6z"/><path class="st20" d="M151.2,270.2c0-0.1,0.1-0.2,0.1-0.4c0-0.5,0-1,0.1-1.6C151.3,268.9,151.1,269.6,151.2,270.2z"/><path class="st20" d="M132.9,265.1c0.1-0.1,0.2-0.3,0.4-0.8L132.9,265.1L132.9,265.1z"/><path class="st20" d="M152.1,275.4C152.1,275.4,152.1,275.4,152.1,275.4C152.2,275.3,152.2,275.3,152.1,275.4z"/><path class="st20" d="M128.5,288c0,0.1-0.1,0.1-0.1,0.2c0,0.2,0.1,0.4,0.1,0.6C128.5,288.5,128.5,288.3,128.5,288z"/><path class="st20" d="M169.9,259.4c0.1-1,0-0.8-0.3-0.3l0,1C169.8,260,169.9,259.1,169.9,259.4z"/><path class="st20" d="M169.9,250.7l-0.1-0.1c0,0.2,0.1,0.4,0.1,0.6C169.9,250.9,169.9,250.8,169.9,250.7z"/><path class="st20" d="M169.9,251.1l-0.1,1.2c0.1,0,0.1-0.2,0.2,0.1C170,251.9,169.9,251.5,169.9,251.1z"/><path class="st20" d="M168.2,269.3c0.1,0.2,0.2,0.4,0.3,0.5c-0.2-1.5-0.3-3.4-0.2-4.4c-0.1,0.2-0.2,0.4-0.2,0.7c0,0.3,0,0.6,0,1      c0,0.7,0.1,1.5,0.1,2.1L168.2,269.3z"/><path class="st20" d="M169.6,254.1c-0.1-0.3-0.1-0.3-0.3,0.4c0.1,0.5,0.3-0.3,0.4,0.7C169.7,254.9,169.6,254.4,169.6,254.1z"/><path class="st20" d="M169.1,261.9c0.1-0.1,0.2-0.6,0.3-1.5c-0.1,0.5-0.3,1.2-0.3,0.2C169,261.5,169,261.9,169.1,261.9z"/><polygon class="st20" points="169.2,259.8 169.2,257.7 169.2,258     "/><path class="st20" d="M153.9,264.3c0.1,0.1-0.1,1.9,0.2,0.3C154,264.4,154.1,263.1,153.9,264.3z"/><path class="st20" d="M153.1,264.3c-0.1,0.4-0.1,0.9-0.1,1.3c0.1,0.1,0.2-0.2,0.2-0.7C153.2,264.6,153.2,264.1,153.1,264.3z"/><polygon class="st20" points="151.5,284.2 151.5,283.9 151,283.9     "/><path class="st20" d="M169,253.2c0,0.2,0,0.4,0.1,0.6c0,0.1,0.1,0.1,0.2-0.4l0-0.2c0.1-0.7,0.3-1.6,0.4-1.8      c-0.2,0.2-0.3,0.5-0.5,1c0,0.2,0.1,0.3,0.1,0.8C169.1,253.6,169,253.2,169,253.2z"/><path class="st20" d="M154.5,253.9c0,0.2,0,0.4,0,0.4c0,0,0.1-0.1,0.2-0.5C154.7,253.9,154.6,253.9,154.5,253.9      C154.5,253.9,154.5,253.9,154.5,253.9z"/><path class="st20" d="M168,265l-0.1,0.7c0,0.2,0.1,0.4,0.1,0.6C167.8,266,168.1,265,168,265z"/><path class="st20" d="M168.7,272.3c-0.1-0.3-0.2-0.7-0.3-1c0.1,0.3,0.2,0.6,0.2,0.9L168.7,272.3z"/><path class="st20" d="M154.6,260.5c-0.1,0.3-0.2,0.3-0.3,0.5l0.3,0.1L154.6,260.5z"/><path class="st20" d="M170.2,253.4l-0.1-1.1C170,253.3,170.1,253.5,170.2,253.4z"/><path class="st20" d="M170.1,250c0,0.1,0,0.3,0,0.4c0-0.1,0.2-0.3,0.2-0.9C170.2,249.7,170.2,249.8,170.1,250z"/><path class="st20" d="M170.3,253.5c0-0.2,0.1-0.4,0.2-0.5c-0.1-0.1-0.2,0.3-0.3,0.4c0,0.2,0,0.5,0,0.7      C170.2,254,170.3,253.7,170.3,253.5z"/><path class="st20" d="M170,249c0,0.1,0,0.2,0,0.3c0,0.1,0,0.2,0,0.3c0,0.1,0,0.2,0,0.4l0,0c0-0.2,0-0.4,0-0.6      C170,249.2,170,249.1,170,249z"/><path class="st20" d="M170.1,250.5c0,0,0-0.1,0-0.1C170.1,250.5,170.1,250.5,170.1,250.5z"/><path class="st20" d="M170.7,279.2c0.1,0.4,0.3,0.2,0.3,0.3C170.7,278.8,170.6,279.2,170.7,279.2z"/><path class="st20" d="M168.9,253.3C168.9,253.2,169,253.2,168.9,253.3C169,253.1,168.9,253,168.9,253.3z"/><path class="st20" d="M169.4,262.6C169.4,262.5,169.4,262.3,169.4,262.6C169.3,262.9,169.3,262.8,169.4,262.6z"/><path class="st20" d="M169.3,262.7c0-0.1,0-0.1,0.1-0.1c0-0.1,0-0.4,0.1-0.7C169.3,262,169.4,261,169.3,262.7z"/><path class="st20" d="M169.6,251.4C169.6,251.3,169.6,251.3,169.6,251.4C169.6,251.3,169.6,251.3,169.6,251.4z"/><path class="st20" d="M169.5,259.8l0-1.1c-0.1,0.1-0.2,0.1,0,0.5C169.4,259.1,169.5,259.3,169.5,259.8z"/><path class="st20" d="M169.5,258.2l0,0.5C169.6,258.6,169.6,258.5,169.5,258.2z"/><path class="st20" d="M170.2,248.2c0.1,0.2,0.1,0.3,0.1,0.5l0.2,0.6C170.5,249,170.4,248.6,170.2,248.2z"/></g><path class="st10" d="M117.7,244.1c0,0-6.3,1.9-7.6-7.2l-7.3,24.5c4.7,14.7,10.7,23.6,15.1,28.7c1.1,2.8,3,5,5.3,6.8     c5.6,4.5,12.8,5.9,18.6,4.1c2.1-0.6,4.6-1.4,7.5-2.2L117.7,244.1z"/><path class="st4" d="M173.6,253.9l-2.4-2.3c-2.9-2.9-5.3-6.3-7.2-10l-1.4-4c-0.7-1.9-0.8-3.8,0.9-4.9l0,0c0.1,0,0.1-0.1,0.2-0.1     c1.5-0.8,3.4-0.3,4.3,1.2l2.5,4c2,3,4.4,5.6,7.2,7.9l2.1,1.4c2.5,2.1,2.1,6.1-0.8,7.6l0,0C177.3,255.6,175.1,255.3,173.6,253.9z"/><linearGradient gradientUnits="userSpaceOnUse" id="SVGID_8_" x1="72.3696" x2="148.6817" y1="392.0131" y2="392.0131"><stop offset="0" style="stop-color:#F18805"/><stop offset="0.2771" style="stop-color:#F28B09"/><stop offset="0.5367" style="stop-color:#F39214"/><stop offset="0.7887" style="stop-color:#F6A027"/><stop offset="1" style="stop-color:#FAAF3D"/></linearGradient><polygon class="st21" points="148.7,462.2 133.2,344.1 132.3,321.8 72.4,322 93.5,462.2    "/><linearGradient gradientUnits="userSpaceOnUse" id="SVGID_9_" x1="34.8138" x2="133.1998" y1="392.0131" y2="392.0131"><stop offset="0" style="stop-color:#F18805"/><stop offset="0.2771" style="stop-color:#F28B09"/><stop offset="0.5367" style="stop-color:#F39214"/><stop offset="0.7887" style="stop-color:#F6A027"/><stop offset="1" style="stop-color:#FAAF3D"/></linearGradient><polygon class="st22" points="49.4,323.1 34.8,462.2 92.5,462.2 105.3,361.3 133.2,344.1 132.3,321.8    "/><linearGradient gradientUnits="userSpaceOnUse" id="SVGID_10_" x1="49.4472" x2="132.2608" y1="265.5279" y2="265.5279"><stop offset="0" style="stop-color:#4361EE"/><stop offset="1" style="stop-color:#480CA8"/></linearGradient><path class="st23" d="M49.4,323.1c0,0,4.4-93.4,24.6-108.9c7.3-5.6,14.1-6.8,19.9-6.1c9.2,1.2,16.9,7.6,20.1,16.3     c5.2,14,15.3,46.8,18.2,97.3L49.4,323.1z"/><g><path class="st20" d="M59,279.6l-0.2-0.3C58.8,279.7,58.9,279.5,59,279.6z"/><path class="st20" d="M57.6,289.9L57.6,289.9C57.6,289.8,57.6,289.8,57.6,289.9z"/><path class="st20" d="M59.8,290.6c0-0.2,0-0.2,0-0.3C59.7,290.5,59.7,290.6,59.8,290.6z"/><path class="st20" d="M57.3,263.1C57.3,263.1,57.3,263.1,57.3,263.1C57.1,262.9,57.2,263,57.3,263.1z"/><path class="st20" d="M59.1,279.6C59.1,279.6,59.1,279.6,59.1,279.6C59.1,279.6,59.1,279.6,59.1,279.6L59.1,279.6z"/><path class="st20" d="M57.8,289.1l0-0.2C57.8,289,57.8,289.1,57.8,289.1z"/><path class="st20" d="M104.2,258.6c-0.2,0.3-0.5,0.7-0.7,1C104.9,258.3,104.2,258.8,104.2,258.6z"/><path class="st20" d="M104.4,258.4L104.4,258.4c-0.1,0.1-0.1,0.2-0.1,0.2L104.4,258.4z"/><path class="st20" d="M66.7,267.5c0,0.2,0,0.3,0,0.4C66.7,267.8,66.7,267.7,66.7,267.5z"/><path class="st20" d="M51.4,302c0.1,0,0.3-0.3,0.4-0.4c0.5-0.5,0.6-0.6,1.1-1.1l-0.2,0.1c-0.1-0.5,0.4-0.5,0.7-1l0,0      c0.6-0.4,0.6-0.6,0.7-0.7c0.1-0.1,0.2-0.3,0.7-0.7l-0.2-0.1c-0.2-0.2,0.1-0.4,0.4-0.6c0.3-0.2,0.7-0.5,0.9-0.9l-0.3,0.2      c0.1-0.2,0.4-0.4,0.7-0.5c0.3-0.1,0.7-0.3,0.9-0.4c0.1-0.1,0,0.2-0.1,0.3c0.5-0.4,0.4-0.5,0.3-0.6c-0.1-0.1-0.3-0.1-0.1-0.5      c0.2,0,0.3,0.4,0.6-0.1c0.1-0.1,0.2-0.5,0.4-1c0.1-0.2,0.1-0.5,0.2-0.7c0-0.1,0.1-0.2,0.2-0.3c0.1-0.1,0.1-0.2,0.2-0.3      c-0.2,0.1-0.4,0.2-0.3-0.2c0.1-0.3,0.4-0.6,0.6-1c0.2-0.3,0.4-0.7,0.3-1.1c0.1-0.1,0.1-0.1,0.1-0.1c0-0.2,0.1-0.6,0.2-1      c0-0.4,0.1-0.7,0-0.9c0.2,0,0.4-0.3,0.5-0.5c0.1-0.3,0.1-0.6,0.1-1c0-0.7,0-1.3,0.4-1.2c0.1-0.5,0.1-1,0.2-1.4l0.1,0      c0.1-0.5,0.1-0.8,0.1-1c0-0.2-0.1-0.4-0.2-0.6c0.1-0.2,0.1,0,0.2,0c0.3-1.3,0.2-1.5-0.1-2.6l0.3-0.1c-0.1-0.2,0-0.6,0.1-1.2      c0.1-0.6,0.1-1.4,0-2c0,0,0.1,0,0.1,0.1c-0.1-0.4-0.1-0.8-0.1-1.2c0-0.4,0-0.8,0.1-1.2c0-0.8,0-1.4-0.5-1.6      c-0.1-0.3-0.2-0.6-0.4-0.9c0.1,1.2-0.4-0.1-0.5,0.4c-0.1-0.5,0.1-1.3,0.2-0.7l0,0.1c0.2,0.1,0.2-0.3,0.2-0.7      c0-0.4-0.1-0.8,0-0.9c-0.4-2.4-0.8-4.8-1.5-7.1l-0.3,0.4l-0.2-0.8c0-0.2,0.2-0.4,0.4,0.2c0.1-0.4-0.5-0.9-0.6-0.9      c-0.2-1.1,0.6,0.3,0.4-0.1c-0.1-0.1-0.1-0.3-0.2-0.4l0,0.1c-0.3-0.3-0.4-0.3-0.7-0.9c-0.1-0.4,0.1-0.3,0.1-0.5      c0,0,0-0.1-0.1-0.3l-0.4-1l-0.1,0.5c-0.3-0.4-0.4-0.9-0.5-0.3c0.1-0.2,0-0.5-0.1-0.9c0,0,0-0.1,0-0.1c0,0,0,0,0,0      c-0.2,1.1-0.4,2.1-0.6,3.2c0.1,0.2,0.2,0.4,0.2,0.7c0.4,0.2,0.2,0.6,0.6,0.6c-0.1-0.3-0.3-0.6-0.4-0.9c0.1,0.3,0.4,0.5,0.6,0.8      c0.2,0.3,0.4,0.6,0.4,1.1c-0.1,0-0.3-0.3-0.4-0.5c0,0.3,0.2,0.5,0.2,0.8c-0.2,0-0.3-0.3-0.5-0.6c-0.1-0.4-0.3-0.8-0.5-1      c0,0.3,0.7,1,0.1,0.9c0.3,0.1,0.4,0.4,0.5,0.7c0.1,0.3,0.1,0.7,0.4,1l-0.2,0c0.1,0.1,0.3,0.3,0.3,0.5l-0.4-0.3      c0.1,0.1,0.2,0.3,0.2,0.4c0,0.1,0,0.3,0,0.4c0,0.3,0,0.6,0.1,0.9c-0.3-1.2,0.2-0.3,0.2-0.9c0.7,1.4-0.4,1,0.1,2.6      c-0.1-0.3,0-0.8,0.2-0.5c0,0.2,0,0.4,0,0.5c0,0.2,0,0.3-0.1,0.5c0.3,1.1,0.2-0.2,0.4,0.2c-0.2,0.4,0.2,0.5,0.4,1l-0.2,0      c0.1,1.3,0.6,0.2,0.6,1.4c-0.1-0.1-0.3-0.3-0.4-0.4c0.1,0.2,0.1,0.4,0.2,0.6l-0.3-0.1c0.3,0.6,0.3,0.8,0.3,1.5      c0.2-0.2,0.5,0,0.5,0.6c-0.1,0.4-0.3-0.2-0.1,0.6c-0.2-0.2-0.4-0.3-0.2-0.7c-0.1,0-0.2-0.2-0.3-0.2c-0.1,0.4,0.1,1,0.1,1.3      c0-0.1,0-0.2,0-0.3l0.4,1.1c-0.1,0.2-0.2,0-0.2-0.1c0,0.2,0.2,0.4,0.2,0.7c-0.2-0.1-0.4,0-0.5-0.5c0.1,0.4,0.2,0.7,0.3,1.1      c-0.1,0.1-0.2,0.6-0.3,0.4c0,0.3,0,0.7,0.1,1.1c0,0.2,0.1,0.4,0.1,0.6c0,0.2,0,0.4,0,0.6c0,0,0.1,0.1,0.1,0.3      c-0.1,0.8-0.3,1.4-0.1,2.3l-0.4,0.5c0,0.7,0.5-0.6,0.5,0.5c0,0.8-0.3,0.3-0.5,0.5c0.1,0.2,0.2,0.5,0.2,0.8c0,0.2,0,0.3,0,0.5      c0,0.2-0.1,0.4-0.2,0.5c0-0.3,0.1-0.4,0.1-0.7c-0.1,0.2-0.2,0.4-0.3,0.5c-0.1-0.4-0.1-0.7-0.1-0.8c0-0.1-0.1-0.1-0.2,0.1      c0.3,0.1,0.3,0.6,0.2,1.2c-0.1,0.5-0.2,1.1,0.1,1.2c-0.1,0.1-0.2,0.2-0.2,0.3c0-0.1,0-0.1,0-0.2c-0.5,0.6,0.3,0.7,0,1.6      c-0.2,0.3-0.3,0.5-0.3,0.2c0,0.2,0,0.5-0.1,0.8c-0.1,0.2-0.1,0.1-0.1,0l-0.1,0.4l-0.2,0.5l0,0c0,0.2,0,0.6,0,0.8      c-0.2,0.2,0-0.2-0.1-0.1c0,0.2-0.1,0.4-0.1,0.6c-0.1,0.1-0.2,0-0.2-0.2c0-0.2,0.1-0.4,0.2-0.6c-0.4,0.1-0.4,0.2-0.5,0.5      c0,0.2-0.1,0.5-0.5,1c0.1-0.2,0.1-0.4,0.2-0.6c-0.5,0.2-0.6,0.6-1.1,1c0.1,0,0.4-0.2,0.6-0.4c0.2-0.1,0.5-0.1,0.4,0.2      c-0.1,0.1-0.3,0.3-0.4,0.7c-0.2-0.1-0.3,0.2-0.6,0.6l-0.3-0.2c-0.2,0.5,0,0.5-0.1,0.8c-0.3,0.4-0.6,0.4-0.9,0.4      c-0.5,0.7,0.7-0.2,0.1,0.6c-0.5,0.5-0.7,1-1.1,1.8c-0.4,0.3-0.1-0.2-0.3-0.1l-0.1,0.5c-0.1,0.1-0.1,0-0.1,0      c-0.2,0.4,0.2,0.2-0.1,0.8c0.1,0.2-0.2,0.3-0.6,0.5c-0.2,0.1-0.4,0.3-0.6,0.4v0c0,0.5-0.1,0.9-0.1,1.4c0,0.1,0,0.1,0,0.2      c0,0.4-0.1,0.9-0.1,1.3C51.3,302.5,51.5,302.2,51.4,302z M57.9,260.3c-0.2-0.3-0.1-0.2,0-0.2L57.9,260.3z M56.3,292.6      c0.2,0.3,0,0.4-0.2,0.6C56.1,293,56.2,292.6,56.3,292.6z"/><path class="st20" d="M65.1,228.8c0.4-0.2,0.9-0.4,1.4-0.7c0.5-0.2,0.9-0.4,1.4-0.6c0.5-0.2,1-0.4,1.5-0.6      c0.3-0.1,0.5-0.2,0.8-0.3l0.8-0.3c0.3-0.1,0.5-0.2,0.8-0.2c0.3-0.1,0.5-0.1,0.8-0.2c2.1-0.6,4.1-1,6-1.2      c-0.8-0.2,0.1-0.3,1.2-0.4c1.1-0.1,2.4-0.2,2.5-0.5c0.5,0.1,1.5,0,0.3,0.3c1.9-0.4,3.3-0.6,4.6-0.8c0.6-0.1,1.2-0.2,1.8-0.4      c0.6-0.1,1.2-0.3,1.8-0.6c0.5,0-0.8,0.4-0.4,0.4c0.1-0.1,0.4-0.1,0.7-0.2c0.3-0.1,0.6-0.2,0.8-0.2c0.4,0-0.5,0.3-1.1,0.5      c1.9-0.5,2.9-0.9,3.5-1.2c0.6-0.3,0.7-0.6,0.8-0.8c2-0.4,2.9-0.7,4.2-1.4c0.7-0.1,1.8-0.3-0.5,0.5c0.7-0.2,2.7-0.8,4.5-1.4      c1.8-0.6,3.5-1.2,3.5-1.4c0.4-0.1,1.8-0.6,2.1-0.8c0.1,0,0.2-0.1,0.3-0.1c-0.4-0.5-0.8-0.9-1.3-1.4c-2.1,0.9-2.2,0.9-4.8,2.1      c-1,0.2-1.9,0.5-2.9,0.7c2.1-0.4-0.4,0.7-2.7,1.6c0.8-0.1,1.4-0.2,1.9-0.3c-1.2,0.4-2.4,0.9-3.7,1.3c-0.5,0.1-0.1-0.1,0.5-0.4      c-0.2,0.1-0.5,0.2-0.7,0.3c-1.4,0.3-0.7-0.1,0.2-0.6c0.5-0.1,0.9-0.1,1.4-0.2c0.9-0.5,1.7-0.9,1.4-1.1c-0.2,0.1-0.7,0.3-1.2,0.5      c0.2-0.1,0.4-0.2,0.2-0.2c-0.1,0-0.5,0.2-1.1,0.4l-0.9-0.1l-0.2,0.2c-1.6,0.4-3.3,0.8-4.9,1.1c-1.7,0.6-3.3,1.2-5.2,1.7      c-1.9,0.6-4.1,1.1-6.9,1.7c1.4-0.5,0.2-0.5,0.2-0.8c0.8,0,1.9-0.2,3.2-0.5c1.3-0.3,2.7-0.6,4.2-0.9c-1.5,0.2-1.2,0-0.8-0.1      c-1.7,0.4-3.5,0.8-5.2,1.2c0.1-0.3-1.2,0-2.6,0.2c0.6,0.2-0.4,0.4-1.8,0.8c-1.4,0.3-3.1,0.8-4.2,1.2c-0.1-0.1,0-0.2,0.4-0.4      c0.2-0.1,0.5-0.2,0.9-0.3c0.4-0.1,0.9-0.3,1.6-0.4c-1.5,0.2-2.4,0.6-3.2,1c-0.4,0.2-0.9,0.5-1.4,0.7c-0.5,0.2-1,0.4-1.7,0.6      c-0.1,0-0.1,0.1-0.2,0.1c-0.5,0.2-1,0.4-1.5,0.6c-0.2,0.1-0.5,0.2-0.7,0.3c-0.3,0.7-0.6,1.4-0.9,2.1      C64.8,229,64.9,228.9,65.1,228.8z M94.5,219.9c-0.3,0.1-0.7,0.2-1,0.3c-0.4,0.1-0.8,0.2-1.2,0.2C92.8,220.2,93.6,220,94.5,219.9      z"/><path class="st20" d="M57.2,290.7L57.2,290.7C57.2,290.7,57.2,290.7,57.2,290.7z"/><path class="st20" d="M118.6,247.8c0.2-0.1,0.4-0.2,0.6-0.3C118.9,247.5,118.7,247.6,118.6,247.8z"/><path class="st20" d="M116.8,248.9c0.6-0.3,1.2-0.8,1.8-1.2c-0.6,0.3-1,0.6-1.4,0.7C116.8,248.7,116.6,248.8,116.8,248.9z"/><path class="st20" d="M77.2,248c0.1,0,0.1-0.1,0.2-0.1C78,247.2,77.7,247.5,77.2,248z"/><path class="st20" d="M119.8,243.8c-0.2,0.1-0.4,0.2-0.6,0.3l-0.6,0.4l-1.3,0.7l0.1-0.1c-0.2,0.1-0.4,0.2-0.6,0.3      c-0.2,0.1-0.4,0.2-0.5,0.3c-0.3,0.2-0.6,0.4-0.9,0.6c-0.3,0.2-0.5,0.4-0.8,0.5c-0.2,0.2-0.4,0.3-0.6,0.5      c-0.4,0.3-0.7,0.6-0.9,0.8c-0.3,0.2-0.5,0.5-0.7,0.7c-0.7,0.5-0.3,0-0.2,0c-0.5,0.4-1,0.7-1.5,1.1c-0.4,0.3-0.8,0.6-1.2,0.9      c-0.7,0.5-1.2,1-1.7,1.5c-0.5,0.5-1,0.9-1.5,1.5c-0.5,0.6-1.1,1.2-1.9,2l-0.5,0.1c-0.2,0.2-0.7,0.7-1.3,1.2      c-0.6,0.6-1.5,1.3-2.4,2.1c-1.8,1.6-4,3.6-5.8,5.5c0-0.1,0.1-0.2,0.3-0.5c-0.5,0.5-1.1,1.1-1.6,1.6c-0.3,0.3-0.6,0.5-0.9,0.8      c-0.3,0.3-0.6,0.5-0.9,0.8c-0.3,0.3-0.6,0.5-0.9,0.8c-0.3,0.3-0.6,0.5-0.9,0.7c-0.6,0.5-1.2,1-1.8,1.4c-1.2,0.9-2.3,1.6-3.3,2.2      c-0.9,0.6-1.7,1.1-2,1.5c-0.5,0.3-1.1,0.6-1.7,0.8c-0.6,0.2-1.2,0.4-1.8,0.6c0.1,0,0.3-0.1,0.4-0.1c0.1,0,0.2-0.1,0.4-0.1      c0.2,0,0.4-0.1,0.6-0.1c0.3-0.1,0.5-0.1,0.6-0.1c0.2,0,0,0.1-0.2,0.2c-0.5,0.3-1.3,0.6-0.3,0.4c-0.5,0.2-1,0.3-1.5,0.3      c-0.1,0-0.3,0-0.4,0c-0.1,0-0.2,0-0.4,0c-0.2,0-0.4,0-0.6,0c-0.4,0-0.6-0.1-0.6-0.1c0,0,0.3-0.1,0.8-0.1c0.1,0,0.2,0,0.4,0      c0.4-0.3-1.1-0.1-2.6-0.3c-0.8-0.1-1.5-0.4-2-0.7c-0.1,0-0.1-0.1-0.2-0.1c-0.1,0-0.1-0.1-0.2-0.1c-0.1-0.1-0.2-0.1-0.2-0.2      c-0.1-0.1-0.2-0.2-0.2-0.2c-0.2-0.1-0.5-0.3-0.7-0.5c-0.2-0.2-0.4-0.4-0.6-0.6c-0.4-0.4-0.7-0.8-1-1.3c-0.6-0.9-1-2-1.1-3.1      c-0.2-1.1-0.2-2.3-0.1-3.4c0.1-1.1,0.3-2.3,0.7-3.4c0.3-1.1,0.7-2.2,1.2-3.2c0.3-0.5,0.5-1,0.8-1.5c0.3-0.5,0.6-1,0.9-1.5      c1.3-1.9,2.7-3.7,4.3-5.2c-0.3,0.2-0.7,0.3-1,0.5c0.7-0.8,1.5-1.5,2.3-2.2c0.3-0.2,0.6-0.4,0.6-0.2c0,0.1-0.4,0.5-1.2,1.2      c0.2-0.2,0.5-0.4,0.8-0.7c0.3-0.3,0.6-0.6,0.9-0.9c0.3-0.3,0.5-0.5,0.7-0.7c0.2-0.2,0.3-0.3,0.3-0.4c0.5-0.3,0.8-0.5,1-0.7      c0.2-0.1,0.3-0.2,0.4-0.2c0.1,0-0.2,0.2-0.5,0.5c-0.6,0.5-1.5,1.3-1,0.9l0.4-0.3l0.4-0.3c0.2-0.2,0.5-0.4,0.7-0.5      c-0.1,0.1-0.2,0.1-0.4,0.2c0.3-0.2,0.5-0.4,0.7-0.6c0.2-0.2,0.4-0.3,0.6-0.5c0.4-0.4,1-0.8,2.2-1.5c1.5-0.8,0.9-0.2,1.5-0.6      c0,0,0.2-0.1,0.9-0.5l3.6-1.9l-1.6,0.5c1.5-1,3.4-1.9,1.6-1.2c0.7-0.2,1.8-0.8,3.2-1.6c1.4-0.8,3-1.8,4.5-2.9      c3-2.2,5.6-4.6,6.3-5.1c0.9-0.9,1.8-1.8,2.8-2.7c1-0.9,2-1.8,3.1-2.9c-0.3,0.3-0.6,0.4-0.6,0.3c0-0.1,0.1-0.2,0.3-0.5      c0.2-0.2,0.5-0.6,1-1.1c0,0.3,0.2,0.2,0.5-0.1c0.3-0.3,0.8-0.8,1.3-1.5c-0.1-0.3-0.3-0.6-0.4-0.9c0,0,0,0,0,0      c-0.1-0.3-0.3-0.6-0.4-0.8c0,0,0,0,0,0c-0.1,0.2-0.2,0.4-0.3,0.6l0.1-0.2c-0.2,0.5-0.5,1-0.9,1.5c-0.4,0.5-0.9,1.1-1.4,1.6      c0.4-0.5-0.1-0.1-0.5,0.2c-0.5,0.4-0.9,0.7-0.3,0c-0.9,1-1.5,1.5-1.9,1.9c-0.4,0.4-0.6,0.6-0.7,0.8c-0.3,0.3-0.4,0.6-1.6,1.9      l-0.7,0.4c-0.4,0.5-0.6,0.7-1,1.1c-0.4,0.4-0.9,0.9-1.9,1.8c1.6-1.6-1.5,0.9,0.3-0.9c-2.3,1.7-4,3-5.3,4.1      c-1.4,1-2.5,1.8-3.8,2.2c-0.5,0.4-0.5,0.5-0.2,0.4c0.2-0.1,0.4-0.2,0.6-0.3c0.3-0.1,0.5-0.3,0.8-0.5c1.2-0.7,2.4-1.6,1.8-1.1      c0.6-0.3,0.2,0.1-0.6,0.7c-0.7,0.6-1.8,1.3-2.6,1.7c-0.8,0.5-1.6,0.7-2.6,1.1c-1.1,0.4-2.4,1-4.5,2.1c0.4-0.2,0.4-0.3,0.8-0.5      c-0.4,0.2-0.8,0.4-1.2,0.6c-0.4,0.2-0.7,0.5-1.1,0.7c-0.8,0.5-1.6,1-2.5,1.5c-0.2,0.2-0.5,0.5-0.7,0.7c-0.3,0.2-0.5,0.4-0.8,0.6      c-0.5,0.4-0.9,0.7-0.9,0.9c1.1-0.9,2.3-1.8,3.5-2.6c-1,0.7-1.9,1.5-2.9,2.4c-1,0.9-2.2,2-3.7,3.3c0.2-0.3,0.9-1.2,1.5-1.8      c-1,0.7-1.6,1.6-2.5,2.4c0-0.3,0.8-1.3,2-2.4c1.2-1.1,2.7-2.3,3.7-3.1c-0.3,0.1-0.7,0.4-1.1,0.7c-0.4,0.3-0.8,0.7-1.2,1      c-0.2,0.2-0.3,0.3-0.5,0.4c-0.1,0.1-0.2,0.2-0.3,0.3c-0.2,0.1-0.2,0.1,0-0.2c-0.6,0.8-1.4,1.6-2.4,2.6c-0.9,0.9-2,2.1-2.8,3.5      l-0.1-0.3c-0.3,0.4-0.8,1.4-1.3,2.2l0.3-0.8l0.4-0.8c-0.7,1.2-1.4,2.2-2,3.3c-0.3,0.5-0.7,1.1-1,1.7c-0.3,0.6-0.5,1.2-0.7,1.8      c0.5-1.3,0.8-2,1-2.3c0.2-0.4,0.3-0.4,0.3-0.3c0,0.1,0,0.2,0.1,0.2c0.1,0,0.2-0.1,0.5-0.6c-0.7,1.5-1.1,2.5-1.4,3.2      c-0.3,0.7-0.5,1.2-0.7,1.7c-0.2,0.5-0.4,1-0.6,1.9c-0.1,0.4-0.2,1-0.3,1.6c0,0.6-0.1,1.2,0,2c0-0.2,0-0.4,0-0.6      c0-0.2,0-0.4,0-0.6c0-0.2,0-0.4,0.1-0.5c0.1-0.6,0.2-0.9,0.2-0.1c-0.1,0.7-0.1,1.6-0.1,2.3c0,0.8,0.1,1.5,0.2,2      c0.3,1.3,0.7,1.8,0.8,2c0.1,0.2,0.1,0,0-0.3c0-0.1-0.1-0.3-0.1-0.5c0-0.2-0.1-0.3-0.1-0.4c0-0.2,0-0.1,0.3,0.4      c0.2,0.9,0.5,1.5,1,2c0.5,0.5,1,1.1,1.9,1.8l-0.1,0.2c0.1,0.1,0.3,0.2,0.4,0.3c0.1,0.1,0.3,0.2,0.4,0.3c0.1,0.1,0.2,0.2,0.4,0.2      c0.1,0.1,0.2,0.1,0.3,0.2c0.2,0.1,0.4,0.2,0.6,0.3c0.2,0.1,0.3,0.1,0.4,0.2c0.5,0.2,0.7,0.1,0.9,0.1c0.2,0,0.3,0,0.7,0      c0.4,0,1.1,0.2,2.4,0.2c-0.7,0.1-1.5,0.2-2.2,0.2c0.9,0.1,1.9,0.1,2.8,0c-0.2,0.1-0.4,0.2-0.6,0.3c1.5-0.2,2.4-0.4,3.4-0.7      c0.2-0.1,0.5-0.1,0.7-0.2c0.1,0,0.2-0.1,0.4-0.1c0.1,0,0.2-0.1,0.4-0.1c0.5-0.2,1-0.4,1.7-0.7c-0.3,0.1-0.3-0.1,0.1-0.4      c0.4-0.3,1.1-0.7,2.2-1.4c0.7-0.4,0.6-0.2,0.6-0.2c0,0,0.1,0,0.3-0.1c0.2-0.1,0.6-0.4,1.3-0.9c-0.5,0.6-1.1,1.2-2.6,1.8      c-0.1,0.1-0.6,0.5-0.7,0.7c0.8-0.4,1.8-0.9,2.7-1.6c0.9-0.6,1.6-1.3,2.1-1.7c-0.4,0.3-0.8,0.6-1.1,0.8c0.6-0.5,1.3-1.1,1.8-1.7      l0.9-0.9c0.3-0.3,0.6-0.6,0.9-0.9c0.6-0.4,0.2,0-0.2,0.5c0.7-0.7,1.2-1.2,2.2-2.2c-0.1,0.4,0.1,0.5-1.4,1.9      c0.6-0.5,1.1-1.1,1.7-1.6l1.6-1.7c0.3-0.1,1.9-1.5,1.5-1c2-1.7,4.3-4.6,6.8-6.8c0.1-0.1,0.3-0.4,0.8-0.9c0.6-0.5,1.2-1,1.8-1.5      c0.3-0.2,0.6-0.5,0.9-0.7c0.3-0.2,0.6-0.5,0.9-0.7c0.6-0.5,1.2-1,1.8-1.5c0.6-0.5,1.3-1.1,2-1.7l0.9-0.5l0.5-0.2l0.5-0.2      c1.2-0.9,0.5-0.5,0.1-0.4c-0.5,0.2-0.7,0.2,1.2-1.2c2.8-2,1.2-0.4,2.3-1c0.2-0.1,0.4-0.3,0.6-0.4c0.2-0.1,0.4-0.3,0.6-0.5      c0.2-0.2,0.5-0.3,0.7-0.5c0.1-0.1,0.3-0.2,0.4-0.3c0.1-0.1,0.3-0.2,0.4-0.2c0,0,0,0,0,0c-0.1-0.3-0.2-0.7-0.3-1c0,0,0-0.1,0-0.1      c-0.1-0.3-0.2-0.7-0.3-1L119.8,243.8z M86.6,243.5l-0.6,0.3C87.3,243,86.9,243.3,86.6,243.5z"/><path class="st20" d="M77.9,296.4C77.9,296.4,77.9,296.4,77.9,296.4C78,296.4,78,296.4,77.9,296.4C78,296.4,78,296.4,77.9,296.4      z"/><path class="st20" d="M110,307.6c0.1-0.1,0.2-0.3,0.3-0.4c0.2-0.2,0.3-0.4,0.4-0.6c0.1-0.2,0.2-0.3,0.2-0.4      c-0.2,0.3-0.4,0.5-0.6,0.8c-0.2,0.2-0.4,0.5-0.5,0.7c-0.3,0.5-0.6,0.9-0.8,1.3c0.2-0.3,0.5-0.6,0.7-0.9      C109.8,307.8,109.9,307.7,110,307.6z"/><path class="st20" d="M126.1,297.9c1.3-0.2,2.8-0.2,4.2,0c0,0,0,0,0,0c-0.1-0.5-0.1-1-0.2-1.4c0,0-0.1,0-0.1,0l-0.4,0l-0.8-0.1      c-0.2,0-0.5,0-0.7,0c-0.2,0-0.5,0-0.8,0c-0.5,0-1,0-1.6,0.1c-0.3,0-0.5,0.1-0.8,0.1c-0.2,0.1-0.5,0.1-0.7,0.1      c-0.5,0.1-0.9,0.2-1.3,0.4c-0.4,0.1-0.7,0.2-1.1,0.4c-0.4,0.1-0.7,0.3-1,0.4c-0.5,0.3-0.7,0.4-0.2,0.1c-1.5,0.6-2.8,1.5-4.1,2.4      l-0.1,0l-0.4,0.3c-0.1,0.1-0.2,0.2-0.3,0.3c-0.2,0.2-0.5,0.4-0.7,0.6c-0.2,0.2-0.4,0.4-0.7,0.6c-0.2,0.2-0.4,0.4-0.6,0.6      c-0.8,0.9-1.6,1.8-2.3,2.8c-1.5,2-2.8,4.1-4.1,6.4c-0.1,0.4-0.3,0.7-0.4,1.1c-0.1,0.4-0.3,0.8-0.5,1.2c-0.3,0.8-0.7,1.8-1.1,3      l-0.3,0.4c-0.3,0.9-0.8,2.3-1.2,3.4c-0.2,0.5-0.4,1-0.6,1.4l1.6,0c0.1-0.1,0.1-0.2,0.2-0.3c0.4-1.1,0.8-2,1.1-2.9      c0.3-0.9,0.6-1.7,0.9-2.5c0.6-1.6,1.2-3.1,2.2-5c0.1-0.2,0.4-0.7,0.7-1c0.3-0.4,0.5-0.6,0.3-0.2c0.1-0.3,0.2-0.5,0.4-0.9      c0.1-0.2,0.2-0.4,0.3-0.6c0.1-0.2,0.2-0.5,0.4-0.7c0.8-1,0.4-0.3,0,0.3c-0.4,0.7-0.8,1.4-0.2,0.7c0-0.1,0.1-0.3,0.2-0.6      c0.2-0.3,0.4-0.7,0.7-1.2c0.5-0.9,1.3-1.9,1.9-2.6c-0.2,0.1-0.4,0.3-0.7,0.6c-0.2,0.2-0.3,0.4-0.5,0.6c-0.2,0.2-0.4,0.5-0.5,0.7      c-0.2,0.3-0.4,0.5-0.5,0.8c-0.2,0.3-0.3,0.5-0.5,0.8c-0.3,0.5-0.6,1-0.8,1.5c-0.2-0.1,0-0.9,0.6-2.2c0.1-0.2,0.2-0.3,0.2-0.5      c0.1-0.2,0.2-0.3,0.3-0.5c0.1-0.2,0.2-0.4,0.3-0.6c0.1-0.2,0.2-0.4,0.4-0.6c0.3-0.4,0.6-0.8,0.9-1.2c0.2-0.2,0.3-0.4,0.5-0.6      c0.1-0.1,0.2-0.2,0.3-0.3c0.1-0.1,0.2-0.2,0.3-0.3c0.6-0.7,1.1-1,1.3-1.2c0.3-0.2,0.4-0.2,0.4-0.2c0.1,0-0.2,0.3,0.1,0.1      c1.3-1,2.3-1.7,3.1-2.2c0.2-0.1,0.4-0.3,0.6-0.4c0.2-0.1,0.3-0.2,0.5-0.3c0.2-0.1,0.3-0.2,0.5-0.3c0.2-0.1,0.3-0.2,0.4-0.2      c0.3-0.2,0.6-0.3,0.9-0.4c0.2-0.1,0.3-0.1,0.5-0.2c0.1,0,0.2-0.1,0.3-0.1c0.1,0,0.2-0.1,0.3-0.1c0.4-0.1,0.8-0.3,1.4-0.3      c0.3,0,0.5-0.1,0.9-0.1c0.3,0,0.6-0.1,1-0.1c1.2,0.1,1.2,0.2,1,0.3c-0.2,0.1-0.6,0.3-0.3,0.4c-0.2,0-0.4,0-0.5,0      c-0.2,0-0.3,0-0.5,0.1c-0.3,0-0.6,0.1-0.9,0.1c-0.3,0.1-0.6,0.1-0.8,0.1c-0.3,0-0.5,0.1-0.8,0.2c-0.5,0.1-0.9,0.2-1.4,0.3      c-0.1,0-0.2,0.1-0.3,0.1c-0.1,0-0.2,0.1-0.3,0.1c-0.2,0.1-0.4,0.2-0.7,0.3c0.4-0.1,0.8-0.3,1.1-0.4c0.4-0.1,0.8-0.2,1.2-0.3      c-0.4,0.2-1.1,0.4-1.8,0.7c-0.2,0.1-0.3,0.1-0.5,0.2c-0.2,0.1-0.3,0.2-0.5,0.2c-0.2,0.1-0.3,0.1-0.4,0.2      c-0.1,0.1-0.3,0.1-0.4,0.2c0.1,0,0.2-0.1,0.4-0.2c0.2-0.1,0.3-0.1,0.5-0.2c0.1,0,0.2-0.1,0.3-0.1c0.1,0,0.2-0.1,0.4-0.1      c0.2-0.1,0.5-0.2,0.8-0.3C123.1,298.5,124.5,298.1,126.1,297.9z M126.4,296.6c-0.8,0.1-1.1,0.1-1,0.1      C125.4,296.7,125.9,296.7,126.4,296.6C126.4,296.6,126.4,296.6,126.4,296.6z"/><path class="st20" d="M105.1,322C105.1,322,105.1,322,105.1,322C105.2,321.8,105.2,321.8,105.1,322z"/><path class="st20" d="M108.5,309.7c-0.2,0.3-0.3,0.6-0.5,0.8c-0.3,0.6-0.6,1.2-0.8,1.8c0.1-0.2,0.2-0.4,0.3-0.6      c0.4-0.9,0.8-1.8,1.4-2.8C108.8,309.1,108.6,309.4,108.5,309.7z"/><path class="st20" d="M120.5,299.8l0.1,0.3l0.5-0.3c0.2-0.1,0.3-0.2,0.5-0.3c-0.3,0.1-0.5,0.1-0.6,0.2      C120.8,299.7,120.7,299.7,120.5,299.8z"/><path class="st20" d="M56.9,323c-0.1-0.2-0.2-0.4-0.2-0.6c-0.1-0.1-0.4-0.5-0.6-1c-0.2-0.5-0.4-1.1-0.4-1.8      c-0.1-0.7,0-1.3,0-1.8c0-0.4,0.1-0.7,0.1-0.9c0.5-1.2,1.2-2.2,1.8-3.2c0.2-0.1,0.4-0.2,0.6-0.3c0.2-0.4,0.5-0.8,0.7-1.2l0.8-1.2      c0.3-0.3,0.6-0.5,0.9-0.7c0.2-0.2,0.4-0.3,0.5-0.3c0.2-0.1,0.1,0.2-0.4,0.9c0.3-0.4,0.6-0.8,0.9-1.1c0.3-0.3,0.5-0.5,0.7-0.8      c0.2-0.2,0.4-0.4,0.5-0.6c0.2-0.2,0.3-0.3,0.4-0.4c0.5-0.6,1-1.1,2.3-2.4l0,0.3c0.5-0.4,1.1-1,1.7-1.5c0.3-0.3,0.6-0.5,0.8-0.7      c0.3-0.2,0.5-0.3,0.7-0.4c0.3-0.2,0.7-0.4,1.3-0.7c0.3-0.2,0.5-0.3,0.8-0.5c0.3-0.2,0.6-0.4,1-0.6c0.7-0.4,1.4-0.8,2.3-1.3      c0.4-0.2,0.8-0.4,1.3-0.7c0.4-0.2,0.9-0.4,1.4-0.7c0.5-0.2,0.9-0.4,1.4-0.6c0.5-0.2,1-0.4,1.5-0.6c0.3-0.1,0.5-0.2,0.8-0.3      l0.8-0.3c0.3-0.1,0.5-0.2,0.8-0.2c0.3-0.1,0.5-0.1,0.8-0.2c2.1-0.6,4.1-1,6-1.2c-0.8-0.2,0.1-0.3,1.2-0.4      c1.1-0.1,2.4-0.2,2.5-0.5c0.5,0.1,1.5,0,0.3,0.3c1.9-0.4,3.3-0.6,4.6-0.8c0.6-0.1,1.2-0.2,1.8-0.4c0.6-0.1,1.2-0.3,1.8-0.6      c0.5,0-0.8,0.4-0.4,0.4c0.1,0,0.4-0.1,0.7-0.2c0.3-0.1,0.6-0.2,0.8-0.2c0.4,0-0.5,0.3-1.1,0.5c1.9-0.5,2.9-0.9,3.5-1.2      c0.6-0.3,0.7-0.6,0.8-0.8c2-0.4,2.9-0.7,4.2-1.4c0.7-0.1,1.8-0.3-0.5,0.5c0.7-0.2,2.7-0.8,4.5-1.4c1.8-0.6,3.5-1.2,3.5-1.4      c0.4-0.1,1.8-0.6,2.1-0.8c1.5-0.5,2.2-0.8,3-1c0.8-0.3,1.6-0.5,3-1.1l-0.8,0.2c0.5-0.4,1.1-0.6,1.8-0.9c0.7-0.2,1.4-0.5,2.4-1      c0,0,0,0,0,0c-0.1-0.4-0.1-0.9-0.2-1.3c-0.2,0.1-0.5,0.3-0.8,0.4c-0.2,0.3-1.4,0.7-3,1.1c-1.5,0.4-3.3,1-4.7,1.7      c-0.7,0.2,0.3-0.3,0-0.4c-3.9,1.7-3.4,1.4-6.5,2.8c-1,0.2-1.9,0.5-2.9,0.7c2.1-0.4-0.4,0.7-2.7,1.6c0.8-0.1,1.4-0.2,1.9-0.3      c-1.2,0.4-2.4,0.9-3.7,1.3c-0.5,0.1-0.1-0.1,0.5-0.4c-0.2,0.1-0.5,0.2-0.7,0.3c-1.4,0.3-0.7-0.1,0.2-0.6      c0.5-0.1,0.9-0.1,1.4-0.2c0.9-0.5,1.7-0.9,1.4-1.1c-0.2,0.1-0.7,0.3-1.2,0.5c0.2-0.1,0.4-0.2,0.2-0.2c-0.1,0-0.5,0.2-1.1,0.4      l-0.9-0.1l-0.2,0.2c-1.6,0.4-3.3,0.8-4.9,1.1c-1.7,0.6-3.3,1.2-5.2,1.7c-1.9,0.6-4.1,1.1-6.9,1.7c1.4-0.5,0.2-0.5,0.2-0.8      c0.8,0,1.9-0.2,3.2-0.5c1.3-0.3,2.7-0.6,4.2-0.9c-1.5,0.2-1.2,0-0.8-0.1c-1.7,0.4-3.5,0.8-5.2,1.2c0.1-0.3-1.2,0-2.6,0.2      c0.6,0.2-0.4,0.4-1.8,0.8c-1.4,0.3-3.1,0.8-4.2,1.2c-0.1-0.1,0-0.2,0.4-0.4c0.2-0.1,0.5-0.2,0.9-0.3c0.4-0.1,0.9-0.3,1.6-0.4      c-1.5,0.2-2.4,0.6-3.2,1c-0.4,0.2-0.9,0.5-1.4,0.7c-0.5,0.2-1,0.4-1.7,0.6c-0.1,0-0.1,0.1-0.2,0.1c-0.5,0.2-1,0.4-1.5,0.6      c-0.9,0.4-1.6,0.7-1.2,0.4l0.6-0.3c-0.5,0.2-1.1,0.5-1.6,0.8c-0.3,0.2-0.6,0.3-0.9,0.5c-0.3,0.2-0.6,0.4-0.9,0.5      c-0.6,0.4-1.3,0.8-1.9,1.2c-0.3,0.2-0.6,0.4-0.9,0.6c-0.3,0.2-0.6,0.4-0.9,0.6c-2.3,1.7-4,3.4-4.1,3.7c0,0,0-0.2,0-0.4      c0.1-0.2,0.1-0.5,0.2-0.6c-1.7,2-3.2,4.2-4.6,6.4c0.1-0.4-0.5-0.2-0.8-0.3c-0.1-0.1-0.2-0.2-0.1-0.5c0.1-0.3,0.4-0.7,1-1.4      c-0.4,0.4-0.8,0.8-1.3,1.3c-0.5,0.5-1.1,1.2-1.7,2.1c0.5-0.5,1.6-1,1-0.3c-1,0.9-1.3,1.2-1.7,1.7c-0.1,0.1-0.2,0.2-0.3,0.3      c-0.1,0.1-0.2,0.3-0.3,0.5c-0.2,0.3-0.6,0.8-1,1.4c0.1-0.1,0.2-0.2,0.2-0.2c0.1,0,0.1,0.1,0.1,0.4c0,0.4-0.2,1.1-0.4,2      c0-0.1-0.2-0.1-0.3-0.2c-0.1,0-0.3-0.1-0.2-0.5c-0.1,0.8-0.1,1.5,0,2.3c0.1,0.7,0.3,1.4,0.5,2c-0.2-0.4-0.3-0.4-0.3-0.2      c-0.1,0.2-0.1,0.8,0,1.3c0-0.2,0.1,0.2,0.3,0.7l1.2,0L56.9,323z M104.5,290.4c-0.3,0.1-0.7,0.2-1,0.3c-0.4,0.1-0.8,0.2-1.2,0.2      C102.8,290.7,103.6,290.5,104.5,290.4z M55.8,316.8c0-0.1,0-0.2,0-0.2C55.9,316.6,56,316.3,55.8,316.8z"/><path class="st20" d="M115.4,304c0-0.1,0.2-0.2,0.3-0.4c0.2-0.2,0.3-0.4,0.5-0.5c0.3-0.3,0.3-0.3-0.6,0.4      C115.4,303.7,113.2,306.3,115.4,304z"/><path class="st20" d="M90.9,210.8c-0.1,0-0.2,0.1-0.3,0.1C90.5,210.9,90.7,210.9,90.9,210.8z"/><path class="st20" d="M93.2,208c-0.2,0-0.3,0-0.5,0c0,0,0,0-0.1,0c-0.2,0-0.4,0-0.6,0c0,0,0,0,0,0c-0.2,0-0.4,0-0.6,0      c-0.3,0.2-0.5,0.4-0.8,0.6c-0.4,0.3-0.9,0.5-2,0.9c0.3-0.1,0.8-0.2,0.1,0.2c-3,1.3-5.8,2.8-8.7,4.1c-1.5,0.6-3,1.2-4.5,1.6      c-1.1,0.3-2.2,0.5-3.3,0.6c-0.5,0.6-1.1,1.2-1.6,1.9c0,0,0,0,0,0c0,0,0.1,0,0.1,0c0.1,0,0.2,0,0.3,0c0.1,0,0.2,0,0.3,0      c0.2,0,0.4,0,0.6,0c0.2,0,0.4,0,0.6,0c0.1,0,0.2,0,0.3,0c0.1,0,0.2,0,0.3,0c0.9-0.1,1.7-0.3,2.7-0.5c-0.2,0-0.4-0.1-0.6-0.1      c0.8-0.2,1.3-0.3,1.7-0.4c0.4-0.1,0.7-0.1,1-0.2c0.8-0.5-0.3-0.1-1.4,0.2c-0.6,0.2-1.2,0.3-1.5,0.3c-0.3,0-0.4,0,0-0.2      c0.6,0,1.6-0.2,2.7-0.6c1.2-0.4,2.5-0.9,3.8-1.5c1.3-0.6,2.5-1.2,3.5-1.6c1-0.5,1.8-0.8,2.2-0.8c2.2-1.1-0.8,0.1,1.4-1l0.7-0.2      l0.5-0.4c1.5-0.7,2.3-0.8,2.4-0.7c-0.4,0.1-1,0.5-1.4,0.7c1-0.3,2.3-0.9,3.5-1.4c1-0.4,1.9-0.7,2.3-0.8c0,0,0,0,0,0c0,0,0,0,0,0      c-0.3,0.1-0.6,0.1-0.9,0.2c-0.4,0.1-0.7,0.2-1.1,0.3c0.6-0.2,1.2-0.4,1.8-0.6c-0.2-0.1-0.5-0.1-0.7-0.2c-0.1,0-0.2,0-0.2,0      c-0.2,0-0.4-0.1-0.6-0.1c-0.1,0-0.2,0-0.2,0c-0.3,0-0.5-0.1-0.8-0.1C93.7,208.1,93.5,208.1,93.2,208C93.3,208,93.3,208,93.2,208      z"/><path class="st20" d="M55.2,293.7l-0.3,0.2l0,0.1C55,293.9,55.1,293.9,55.2,293.7z"/><path class="st20" d="M114.8,303.1l-0.5,0.5c-0.1,0.2-0.3,0.3-0.4,0.5c-0.1,0.2-0.3,0.3-0.4,0.5l-0.4,0.5      c-0.1,0.1,0,0.1,0.2-0.1c0.1-0.1,0.2-0.2,0.3-0.4c0.1-0.1,0.3-0.3,0.4-0.5c0.1-0.1,0.2-0.3,0.3-0.4c0.1-0.1,0.2-0.3,0.3-0.4      C114.9,303.2,115,303,114.8,303.1z"/><path class="st20" d="M54.7,315.4c0,0-0.1,0.1-0.1,0.2C54.6,315.6,54.6,315.5,54.7,315.4z"/><path class="st20" d="M60.1,308.3C60,308.3,60,308.4,60.1,308.3C60,308.4,60.1,308.3,60.1,308.3L60.1,308.3z"/><path class="st20" d="M58.3,283.3c0,0.2,0,0.4,0,0.5C58.4,283.5,58.7,283.3,58.3,283.3z"/><path class="st20" d="M107.6,289.9c-0.1,0-0.3,0-0.4,0.1c-0.3,0.2-0.6,0.3-0.9,0.5C106.7,290.3,107.1,290.1,107.6,289.9z"/><polygon class="st20" points="57.7,288.5 57.6,288.6 58,288.5     "/><path class="st20" d="M110.3,288.3c-0.4,0.1-1.1,0.2-1.9,0.5C109,288.6,109.6,288.4,110.3,288.3z"/><path class="st20" d="M62.5,305.7c-0.5,0.6-0.9,1.1-1.2,1.5c-0.4,0.4-0.7,0.7-1.2,1.1c0.4-0.1,0.9-0.3,1.3-0.4      C61.7,307.2,62.1,306.5,62.5,305.7z"/><path class="st20" d="M108.2,288.9c0.2,0,0.3,0,0.3,0C108.8,288.8,108.8,288.8,108.2,288.9z"/><path class="st20" d="M78,296.4c0.6-0.2,0.9-0.3,1.1-0.5C78.8,296.1,78.4,296.2,78,296.4z"/></g><polygon class="st10" points="92.9,458.7 105.3,361.3 115.3,355.1    "/><path class="st10" d="M63.5,258.2c-2,11.5-14.1,64.9-14.1,64.9l46.5-0.8l-25.6-75C70.4,247.4,65.4,253,63.5,258.2z"/><path class="st4" d="M103.8,211c0,0-15.1,11.2-20.6-2.3v-36.8h20.6V211z"/><path class="st4" d="M111.4,151.6c2.5,1.1,4.4,3.2,5,5.9c2.9,11.7,8.8,44.4-18.1,40.3c0,0-18.5-3.1-11-26.3     C87.3,171.5,82.4,139.3,111.4,151.6z"/><g><linearGradient gradientUnits="userSpaceOnUse" id="SVGID_11_" x1="189.9892" x2="190.7551" y1="351.4339" y2="248.0301"><stop offset="0" style="stop-color:#B5179E"/><stop offset="0.2855" style="stop-color:#C41A98"/><stop offset="0.8284" style="stop-color:#EA228A"/><stop offset="1" style="stop-color:#F72585"/></linearGradient><path class="st24" d="M216.2,290.9c0-10.4,8.1-18.9,18.4-19.5c0.7,0,1.2-0.6,1.2-1.3v-13.8c0-5.9-4.8-10.7-10.7-10.7h-69.3      c-5.9,0-10.7,4.8-10.7,10.7v69.3c0,5.9,4.8,10.7,10.7,10.7h69.3c5.9,0,10.7-4.8,10.7-10.7v-13.8c0-0.7-0.5-1.2-1.2-1.3      C224.3,309.8,216.2,301.3,216.2,290.9z"/></g><path class="st4" d="M69.3,308.3c7,13,71.9,39.9,80.8,21.9c6.4-12.9-27.7-30.7-41.4-38.5c-7.5-4.3-26.1-18.7-33.3-14     C67.6,282.7,60.2,291.4,69.3,308.3z"/><linearGradient gradientUnits="userSpaceOnUse" id="SVGID_12_" x1="60.5256" x2="125.638" y1="274.152" y2="274.152"><stop offset="0" style="stop-color:#4361EE"/><stop offset="1" style="stop-color:#480CA8"/></linearGradient><path class="st25" d="M112.4,291.3c-3.3-1.9-10.2-6.2-17.4-9.9c0.9-6.9,0.8-14-0.4-21c-2.5-14.8-6.8-34.8-12.3-39.4     c-9.1-7.6-10.5,1.3-10.5,1.3s-22.1,53.5-4.5,82.9c0.7,1.1,1.4,2.1,2,3c7,13,44.2,32.8,53.1,14.8     C128.7,310.2,126.1,299.2,112.4,291.3z"/><g><path class="st20" d="M75.9,250.9c0.1,0,0.2-0.1,0.3-0.2C76.1,250.7,76,250.8,75.9,250.9z"/><path class="st20" d="M88.8,288.2l0-0.1c0-0.1,0-0.1,0-0.1C88.8,288,88.8,288.1,88.8,288.2z"/><path class="st20" d="M70.3,226.3c-0.2,0.5-0.4,1-0.6,1.6c0,0,0,0,0,0c0.4,0.3,0.2,0.2-0.1,0.1c0,0,0,0.1,0,0.1      c0.9,0.3,1.9,0.8,3.6,1.8l-0.2-0.1c2.7,1.5,4.4,2.7,6,4.2c0.4,0.4,0.8,0.8,1.1,1.2c0.4,0.4,0.7,0.9,1,1.4c0.6,1,1.2,2.2,1.5,3.8      c0-0.2,0.1-0.3,0.1-0.5c0.2,0.7,0.2,1.1,0.2,1.4c0,0.2,0,0.3,0,0.4c0,0.1,0,0.1,0,0.2c0,0.1,0,0.1,0,0.2      c0.1,0.4,0.1,0.3,0.2,0.1c0-0.1,0-0.3,0-0.5c0-0.1,0-0.2,0-0.3c0-0.1,0-0.2,0-0.4c-0.1-1-0.4-1.9,0-1.3c0,0.5,0.1,1.3,0.1,2.3      c0,0.5-0.1,1-0.2,1.6c-0.1,0.5-0.3,1.1-0.6,1.6c-0.5,1-1.3,1.9-2,2.5c-0.7,0.6-1.4,1-1.7,1.1c-0.9,0.7-0.7,0.6-0.5,0.6      c0.2,0,0.4-0.1-0.6,0.6l-0.6,0.2l-0.4,0.5c-1.2,0.8-2,1.1-2.1,1c0.3-0.2,0.8-0.6,1.1-0.9c-1.6,0.9-4,2.9-4.9,3.4l1.7-1.1      c-2.5,1.8-5.3,3.8-8.2,5.8c-1,0.7-2,1.4-2.9,2.1c-0.1,0.9-0.2,1.8-0.3,2.6c0.3-0.2,0.5-0.4,0.8-0.6c1.1-0.8,2.2-1.5,3.4-2.3      c2.3-1.6,4.8-3.2,7.2-4.9c0-0.1-0.9,0.3,0.1-0.5l2.8-1.5c0.9-0.7,0.6-1,2.5-2c-0.3,0.1-0.7,0.3-0.1-0.2c1.2-0.8,2.5-1.7,3.6-2.7      c0.6-0.5,1.1-1.1,1.6-1.8c0.5-0.7,0.9-1.4,1.1-2.2c0.3-0.8,0.4-1.6,0.5-2.4c0-0.8,0-1.6-0.2-2.4c-0.3-1.6-1-3.1-1.9-4.4      c-0.9-1.3-2-2.5-3.2-3.5c-1.2-1-2.5-1.9-3.8-2.7C74,228.5,72.2,227.4,70.3,226.3z"/><path class="st20" d="M92.8,262.2l-1.6,0.7l0.4-0.1c-1.2,0.7-1.3,0.8-3.7,1.8c-1.5,0.5-0.8,0.1-1.4,0.3c0,0-0.2,0-0.9,0.3      l-3.5,1.3l1.5-0.3c-1.5,0.7-3.3,1.3-1.5,0.9c-2.5,0.4-13,4.9-14.5,5.3c-1,0.5-2.1,1-3.2,1.3c-0.6,0.2-1.1,0.3-1.7,0.3      c-0.6,0.1-1.2,0.1-1.9,0c0.3,0.1,0.6,0.2,0.5,0.3c-0.1,0-0.2,0.1-0.5,0.1c-0.1,0-0.1,0-0.2,0c0,0.4,0,0.8,0,1.2      c0.2,0,0.3,0.1,0.5,0.1c0.3,0.1,0.6,0.1,0.7,0.1c0.1,0,0,0.1-0.5,0.1c0.7,0,1.3-0.1,1.7-0.1c0.4-0.1,0.8-0.2,1.1-0.2      c0.5-0.1,0.8-0.2,1-0.3c0.2-0.1,0.3-0.2,0.6-0.3c0.3-0.1,0.7-0.4,1.5-0.8l0.8-0.1c1-0.6,1-0.7,3.4-1.7c-1.9,0.9,1.6-0.3-0.5,0.7      c5.1-1.6,7.1-3.3,9.6-3.6c2.1-1.4-4.4,1.4-3.1,0.8c-1.1,0.3,1.7-1.1,3.3-1.7c1.6-0.6,2.9-0.4,6.9-2c-0.4,0.2-0.4,0.2-0.8,0.4      c1.5-0.5,2.8-1.3,4.7-1.8c0.9-0.7,2.4-0.9,2.5-1.4l-3.6,1.5c1.5-0.7,2.8-1.5,4.7-2.3c-0.1-0.4-0.1-0.8-0.2-1.1      c-0.5,0.1-0.7,0.1,0-0.2c0,0,0-0.1,0-0.1c-1,0.4-2.1,1.1-2.2,1.2C88.7,264.1,94,261.8,92.8,262.2z M86.2,265l0.6-0.2      C85.6,265.4,85.9,265.2,86.2,265z"/><path class="st20" d="M92.5,319.4l0.5-0.8c0.2-0.3,0.4-0.5,0.6-0.8c-0.1,0.2-0.3,0.4-0.5,0.6C92.9,318.7,92.7,319,92.5,319.4z"/><path class="st20" d="M71,254.3l-0.2,0.1C70.9,254.4,70.9,254.4,71,254.3z"/><path class="st20" d="M92.5,319.5c0.1-0.1,0.2-0.2,0.3-0.2C92.8,319.1,92.8,319.1,92.5,319.5z"/><path class="st20" d="M88.8,286.6c-0.1,0.2-0.1,0.4-0.2,0.6c0,0.2-0.1,0.3-0.1,0.4c0,0.2,0,0.3,0,0.3c0,0.1,0.1-0.1,0.2,0      c0-0.2,0-0.4,0-0.7C88.8,287.1,88.8,286.8,88.8,286.6z"/><path class="st20" d="M92.5,321.3c0.1-0.2,0.2-0.4,0.2-0.7c-0.1,0.1-0.2,0.2-0.2,0.3c-0.1,0.3-0.2,0.6-0.2,0.9      C92.4,321.7,92.5,321.5,92.5,321.3z"/><path class="st20" d="M123.8,302.5c-0.3-0.6-0.6-1.3-1-1.9c-0.1,0.1-0.2,0.2-0.4,0.4c-0.1,0.1-0.2,0.1-0.3,0.2      c-0.1,0.1-0.2,0.1-0.3,0.2c-0.2,0.1-0.3,0.2-0.5,0.3c-0.3,0.1-0.5,0.2-0.7,0.3c-0.1,0-0.2,0.1-0.3,0.1c-0.1,0-0.2,0-0.2,0      c-0.1,0-0.3,0-0.4,0c-0.3,0.2-0.6,0.3-0.7,0.3c-0.1,0.1-0.2,0.1-0.2,0.1c0,0,0.3,0,0.5-0.1c0.2,0,0.4-0.1,0.4,0      c0,0.1-0.3,0.3-1.2,0.7c-2.5,0.8-4.3,1.2-7.6,2.2c-2,0.4,0.3-0.3-0.4-0.2c-0.6,0.2-1.1,0.5-1.7,0.7c-0.4,0.1-0.3,0-0.3-0.1      c-0.7,0.3-0.7,0.4-0.8,0.5c-0.1,0.1-0.1,0.1-0.3,0.2c-0.1,0.1-0.2,0.1-0.4,0.2c-0.2,0.1-0.4,0.2-0.7,0.3      c-0.2,0.3-1.4,0.6-2.7,1.2c-0.7,0.3-1.4,0.7-2.1,1.1c-0.3,0.2-0.7,0.5-1,0.7c-0.3,0.3-0.6,0.5-0.8,0.8c-0.6,0.4,0.1-0.4-0.1-0.3      c-0.7,0.7-1.3,1.2-1.6,1.6c-0.2,0.2-0.4,0.4-0.5,0.5c-0.1,0.2-0.3,0.3-0.4,0.5c-0.3,0.3-0.5,0.6-0.8,1c-0.1,0.2-0.3,0.4-0.5,0.7      c-0.1,0.1-0.2,0.3-0.3,0.4c-0.1,0.1-0.2,0.3-0.3,0.5c-0.6,0.7-1.2,1.4-1.8,2.1c0.7-0.8,0.7-0.6,0.4,0c-0.3,0.6-0.8,1.7-1.2,2.8      c0.2-0.3,0.4-0.5,0.6-0.8c0.2-0.2,0.3-0.4,0.5-0.6c-0.6,1-1,2.1-1.5,3.2c-0.2,0.4-0.2,0-0.1-0.6c-0.1,0.2-0.1,0.5-0.2,0.6      c-0.3,0.6-0.4,0.7-0.5,0.5c0-0.1,0-0.5,0.1-1c0.1-0.2,0.2-0.4,0.4-0.6c0.1-0.2,0.3-0.4,0.4-0.5c0.2-0.9,0.5-1.7,0.2-1.6      c-0.1,0.2-0.3,0.6-0.5,1.1c0.1-0.2,0.1-0.4,0-0.3c0,0-0.1,0.2-0.2,0.3c-0.1,0.2-0.1,0.4-0.2,0.7c-0.2,0.2-0.5,0.4-0.7,0.6l0,0.2      c-0.5,1-0.9,2-1.3,3.1c0.7,0.4,1.5,0.7,2.2,1c0-0.1,0-0.2,0.1-0.3c0-0.1,0.1-0.3,0.1-0.4c0.1-0.5,0.2-0.9,0.2-1.2      c0-0.3,0-0.5-0.1-0.6c0-0.1-0.1-0.3-0.2-0.3c0.2-0.4,0.4-0.7,0.6-1c0.2-0.3,0.3-0.6,0.4-0.9c0.1-0.3,0.2-0.5,0.3-0.8      c0.1-0.1,0.1-0.3,0.2-0.4c0.1-0.1,0.1-0.3,0.2-0.4c0.1-0.1,0.2-0.3,0.3-0.4c0.1-0.1,0.2-0.2,0.2-0.2c0,0,0,0-0.1,0.2      c-0.1,0.2-0.2,0.5-0.5,1c0.2-0.3,0.5-0.8,0.9-1.4c0.2-0.3,0.5-0.6,0.7-1c0.1-0.2,0.3-0.3,0.4-0.5c0.1-0.2,0.3-0.3,0.4-0.5      c1.1-1.4,2.1-2.5,2.1-2.7c0.3-0.2,1.2-1.2,1.5-1.4c0.3-0.2,0.5-0.4,0.7-0.6c0.2-0.2,0.4-0.3,0.6-0.5c0.2-0.1,0.3-0.3,0.5-0.4      c0.2-0.1,0.3-0.2,0.5-0.3c0.2-0.1,0.3-0.2,0.5-0.3c0.2-0.1,0.3-0.2,0.5-0.3c0.2-0.1,0.4-0.2,0.6-0.4c0.2-0.1,0.5-0.3,0.8-0.5      l-0.3,0.2l-0.3,0.2c0.1-0.1,0.2-0.2,0.3-0.3c0.1-0.1,0.2-0.2,0.3-0.3c0.2-0.2,0.5-0.3,0.8-0.5c0.2-0.1,0.3-0.1,0.5-0.2      c0.2-0.1,0.4-0.1,0.6-0.2c0.4-0.2,0.9-0.3,1.4-0.5l0,0.1c0.3-0.1,0.6-0.2,0.8-0.2c0.2-0.1,0.5-0.1,0.7-0.2      c0.4-0.1,0.7-0.2,0.9-0.3c0.5-0.1,0.8-0.2,1-0.3c0.5-0.2,1-0.3,3.5-0.7l-0.3-0.2c0.2-0.3,1.3-0.5,2.7-0.7      c0.7-0.1,1.5-0.3,2.3-0.6c0.4-0.1,0.8-0.3,1.1-0.5c0.4-0.2,0.7-0.4,1-0.6c-0.3,0.1-0.7,0.3-1,0.4c0.7-0.4,1.8-0.8,2.8-1.4      C123.5,302.7,123.6,302.6,123.8,302.5z M90.5,325.1c0-0.2,0.1-0.5,0.2-0.9c0.1-0.3,0.3-0.7,0.5-1.1      C91,323.7,90.8,324.4,90.5,325.1z"/><path class="st20" d="M82.4,296.4c-0.1-0.2-0.1-0.4-0.2-0.6c-0.4-0.7-0.8-1.5-1.3-2.4C81.2,294.4,81.7,295.5,82.4,296.4z"/><path class="st20" d="M86.4,304.2C86.4,304.2,86.4,304.2,86.4,304.2C86.4,304,86.4,304,86.4,304.2z"/><path class="st20" d="M84.2,316.9c0.1-0.1,0.2-0.2,0.3-0.3c0.1-0.1,0.2-0.3,0.4-0.5c-0.4,0.5-0.7,0.8-0.9,0.9      C84,317.1,84.1,317.1,84.2,316.9z"/><path class="st20" d="M73.2,283.2l0.1-0.3c-0.4,0-0.8,0-1.2,0C72.9,282.9,72.9,283,73.2,283.2z"/><path class="st20" d="M61.9,288.1l1.4-0.9c0.2,0.1,3.1-1.1,0.6,0.3c0.8-0.4,1.6-0.8,2.3-1.1c0.7-0.3,1.5-0.6,2.3-0.9      c0.8-0.3,1.5-0.5,2.1-0.6c0.5-0.1,1.2-0.2,1.6-0.2c0.1,0,0.2,0,0.3,0c0.1,0,0.1,0,0.1,0c0,0,0,0-0.3,0c1.1,0,2.2,0.3,3.2,0.9      l0,0.1c0.7,0.5,1.3,1.1,2,1.9c0.6,0.7,1.2,1.6,1.8,2.5c0.6,0.9,1.1,1.8,1.6,2.8c0.5,1,1,2,1.4,3c0.6,1.2,1.3,2.4,2,4.5      c0,0.2,0,0.3,0,0.5c0.3,0.8,0.6,2,0.8,3.1c0.2,1.1,0.3,2.1,0.4,2.4c-0.2,0.9-0.2,2.8-0.8,4.7c-0.3,1-0.7,1.9-1.2,2.7      c-0.5,0.8-1,1.6-1.5,2.1l0.1,0.2c-0.8,0.9-1.6,1.7-2.5,2.7c0.2,0.1,0.4,0.3,0.6,0.4c0.4-0.3,0.9-0.8,1.5-1.3      c0.2-0.2,0.5-0.4,0.7-0.6c0.2-0.2,0.4-0.4,0.7-0.6c0.4-0.4,0.7-0.7,0.9-0.9c0.6-0.5,0.4,0,0.2,0.6c-0.2,0.6-0.5,1.2,0,0.8      c0-0.1,0.1-0.3,0.2-0.5c0.1-0.2,0.3-0.5,0.4-0.7c0.3-0.4,0.3-0.3,0.4-0.3c0,0,0.1,0,0.2-0.2c0.1-0.1,0.1-0.2,0.2-0.3      c0.1-0.1,0.2-0.3,0.3-0.6c0-0.1,0-0.2,0.1-0.3c0-0.1,0.1-0.3,0.2-0.5c0.1-0.4,0.3-0.7,0.4-1c0.1-0.3,0.2-0.5,0.2-0.4      c0,0-0.1,0.1-0.2,0.3c0,0.1-0.1,0.2-0.2,0.4c-0.1,0.1-0.2,0.3-0.3,0.5c0.4-1,0.6-1.5,0.8-2.1c0.1-0.3,0.2-0.6,0.3-1      c0-0.1,0-0.2,0.1-0.3c0-0.1,0-0.2,0.1-0.3c0-0.1,0-0.2,0.1-0.4c0-0.1,0-0.3,0-0.4c-0.2,0.4-0.3-0.2-0.4-1.1      c-0.1-0.9-0.4-2.1-0.6-3.1c0.1,0.1,0.2-0.4,0.2-0.6c-0.3-2.1-0.8-3.6-1.3-5.1c-0.5-1.5-1.1-2.9-2-4.6c-0.1-0.4-0.9-2.1-0.4-1.4      c-0.3-0.5-0.7-0.9-1.3-1.9c-0.4-1.1-0.1-0.5,0.3,0.1c0.4,0.6,0.8,1.3,0.5,0.5c-0.1,0-0.6-0.7-1.1-1.5c-0.5-0.8-1.2-1.8-1.7-2.5      c0,0.3,0.6,1.1,1.2,2.1c0.6,1,1.3,2,1.8,2.8c-0.2,0.1-0.7-0.4-1.5-1.4c-0.4-0.5-0.8-1.1-1.3-1.8c-0.5-0.7-1.1-1.4-1.7-2.2      c-0.3-0.3-0.5-0.5-0.6-0.7c-0.2-0.2-0.3-0.3-0.4-0.4c-0.2-0.2-0.2-0.3-0.2-0.3c0-0.1,0.3,0.1,0.1-0.1c-0.5-0.5-1-0.9-1.5-1.1      c-0.5-0.3-0.9-0.4-1.3-0.5c-0.8-0.2-1.3-0.1-1.9-0.1c-0.1,0-0.3,0-0.4,0.1c-0.1,0-0.3,0.1-0.4,0.1c-0.1,0-0.3,0.1-0.4,0.1      c-0.1,0-0.3,0.1-0.5,0.1c-0.6,0.2-1.4,0.4-2.6,0.7c-0.5,0.1-0.7,0.2-0.9,0.1c-0.1,0-0.1-0.1-0.1-0.2c0.1-0.2,0.4-0.4,0.2-0.4      c1.2-0.6,2.2-0.8,3-0.9c0.9-0.1,1.7-0.1,2.5,0c-0.7-0.1-1.4-0.1-2.1,0c0.4-0.1,1-0.2,1.7-0.2c0.7,0,1.3,0.1,1.8,0.3      c-0.4-0.2-1.2-0.4-2.3-0.4c-0.6,0-1.2,0.1-1.8,0.2c-0.7,0.1-1.3,0.4-2,0.6c-1.4,0.5-2.8,1.2-4.1,1.9c-0.9,0.4-1.7,0.8-2.4,1.2      c0,0.3,0.1,0.7,0.1,1c0.1,0,0.1-0.1,0.2-0.1C62.7,287.5,61.2,288.3,61.9,288.1z M67.9,285.4c0.7-0.2,0.9-0.3,0.8-0.2      C68.7,285.2,68.3,285.3,67.9,285.4C67.9,285.4,67.9,285.4,67.9,285.4z"/><path class="st20" d="M61.8,288.4c-0.2,0.1-0.3,0.2-0.4,0.2c0,0.1,0,0.1,0,0.2c0.3-0.2,0.7-0.4,1-0.6      C63.1,287.8,63.4,287.5,61.8,288.4z"/><path class="st20" d="M106,296.1c0-0.2,0.5-0.5,1.3-0.9c0.8-0.4,1.8-0.9,2.7-1.4c1-0.5,1.9-1,2.7-1.5c0.3-0.2,0.5-0.3,0.7-0.4      c-0.3-0.2-0.6-0.4-0.9-0.6c-0.4-0.2-0.9-0.5-1.4-0.8c-0.2,0.1-0.4,0.2-0.6,0.4c-1.1,0.6-2.1,1.2-2.8,1.6      c-0.8,0.4-1.3,0.5-1.4,0.3c-0.8,0.4-1.6,0.7-2.3,1c-0.8,0.3-1.6,0.6-2.4,0.8l0.1-0.1c-0.2,0.1-0.4,0.1-0.6,0.1      c-0.2,0-0.4,0.1-0.5,0.1c-0.3,0.1-0.6,0.1-0.9,0.2c-0.3,0-0.5,0.1-0.8,0.1c-0.2,0-0.5,0.1-0.7,0.1c-0.4,0.1-0.7,0.1-1.1,0.2      c-0.3,0-0.6,0.1-0.9,0.1c-0.7-0.1-0.2-0.1-0.1-0.2c-1.1-0.1-1.9-0.4-2.5-0.7c-0.6-0.3-1-0.7-1.3-1.1c-0.3-0.4-0.6-0.8-0.9-1.4      c-0.3-0.5-0.6-1.2-0.8-2.2c0.1-0.1,0.2-0.3,0.2-0.4c0-0.2,0-0.8,0.1-1.5c0.2-0.7,0.5-1.6,1-2.4c0.5-0.9,1.2-1.8,2-2.7      c0.4-0.5,0.9-1,1.4-1.4c-0.1-0.1-0.3-0.1-0.4-0.2c0.1-0.9,0.2-1.8,0.3-2.8c-0.1,0.1-0.1,0.1-0.2,0.2c-0.1,0.1-0.6,0.4-1,0.6      c-0.4,0.3-0.7,0.5-0.5,0.2c-1,0.8-2,2-2.9,3.4c-0.4,0.7-0.8,1.5-1.2,2.4c-0.1,0.2-0.2,0.4-0.2,0.6c-0.1,0.2-0.1,0.4-0.2,0.6      c-0.1,0.2-0.1,0.4-0.2,0.7c0,0.2-0.1,0.5-0.1,0.7c0,0.2,0,0.6,0,1.3c0,0.8,0.1,1.7,0.3,2.5c0.2,0.8,0.5,1.6,1,2.4      c0.5,0.7,1.1,1.5,1.9,2c0.2,0.1,0.4,0.3,0.6,0.4c0.2,0.1,0.5,0.2,0.7,0.3c0.5,0.2,1,0.3,1.5,0.3c0.7,0.3,1.5,0.4,2.2,0.5      c0.4,0,0.6,0,0.7-0.1c0.1,0,0.2,0,0.1-0.1c-0.1,0-0.4-0.1-0.6-0.1c-0.2-0.1-0.4-0.1-0.2-0.2c0.1,0,0.3-0.1,0.6-0.1      c0.2,0,0.3,0,0.6-0.1c0.2,0,0.5-0.1,0.8-0.1c0.8-0.1,1.3-0.2,1.6-0.3c0.3,0,0.4,0,0.4,0c0.1,0.1-0.1,0.3,0.5,0.2      c0.8-0.3,1.9-0.7,3.1-1.2c1.2-0.5,2.5-1.1,3.9-1.6c-0.9,0.5-1.6,0.8-2.5,1.2c0.7-0.2,1.5-0.5,2.2-0.8c-1.2,0.7-2.3,1.3-2.8,1.5      C104.9,296.3,104.9,296.4,106,296.1z"/><path class="st20" d="M79.5,290.8c0.5,1.1,0.9,1.9,1.3,2.6C80.3,292.1,79.9,291,79.5,290.8z"/><path class="st20" d="M78.2,286.9c-0.2-0.2-0.3-0.2-0.2-0.1c0.5,0.6,1,1.2,1.4,1.8c0.2,0.2-0.1-0.4-0.6-1.1      C78.6,287.3,78.4,287,78.2,286.9z"/><path class="st20" d="M99.9,297.8c0.5-0.1,0.9-0.2,1.4-0.3c0.2-0.1,0.5-0.1,0.7-0.2c-0.6,0.1-1.2,0.2-1.5,0.2      C100,297.6,99.7,297.6,99.9,297.8z"/><path class="st20" d="M79.6,287.3c-0.1-0.1-0.3-0.4-0.7-1c-0.1,0-0.2-0.2-0.4-0.3c-0.2-0.2-0.4-0.3-0.5-0.5      c-0.1-0.1-0.2-0.2-0.2-0.1c0,0.1,0.2,0.3,0.6,0.7c0.1,0,0.2,0.2,0.4,0.4c0.2,0.2,0.4,0.5,0.6,0.6      C79.6,287.3,79.7,287.4,79.6,287.3z"/><path class="st20" d="M81.7,317.7c0,0.2,0,0.5,0,0.7c0.1-0.1,0.3-0.3,0.4-0.4L81.7,317.7z"/><path class="st20" d="M102,297.3c0.2,0,0.4-0.1,0.7-0.2C102.5,297.2,102.2,297.3,102,297.3z"/><path class="st20" d="M95,263.4C95,263.4,95,263.4,95,263.4C94.9,263.4,95,263.4,95,263.4z"/><path class="st20" d="M95.1,263.7c0,0,0-0.1,0-0.1c-1.1,0.4-2.2,0.9-3,1.3C92.9,264.8,94.4,264,95.1,263.7z"/></g><path class="st4" d="M166.9,318.7c-0.7,2-2.6,3.4-4.8,3.3v0c-7.9-3-16.5-4.1-24.9-3.2l-8.6,0.9l-4.2-11.6l9.6-0.9     c8.3-0.8,16.6,0.4,24.3,3.4l4.6,1.7C166,314,167.9,315.8,166.9,318.7L166.9,318.7z"/><path class="st4" d="M180.8,337.9c0.3-2.1-0.8-4.2-2.8-5.1l0,0c-8.4-1-16.5-3.9-23.6-8.5l-7.3-4.7l-9,8.4l8.1,5.2     c7,4.4,14.9,7.2,23.2,8.1l4.9,0.5C177.8,341.7,180.4,340.9,180.8,337.9L180.8,337.9z"/><path class="st4" d="M173.9,344.1c0.3-2.1-0.8-4.2-2.8-5.1l0,0c-8.4-1-16.5-3.9-23.6-8.5l-7.3-4.7l-9,8.4l8.1,5.2     c7,4.4,14.9,7.2,23.2,8.1l4.9,0.5C170.9,347.8,173.5,347.1,173.9,344.1L173.9,344.1z"/><path class="st4" d="M165.7,348.2c0.5-2.1-0.4-4.3-2.3-5.3v0c-8.3-1.8-16-5.5-22.6-10.8l-6.8-5.4l-9.8,7.4l7.6,5.9     c6.5,5.1,14.2,8.6,22.3,10.3l4.8,1C162.3,351.7,164.9,351.2,165.7,348.2L165.7,348.2z"/><path class="st3" d="M121.2,185.3c-0.1-2-0.4-4-0.7-6c-0.1-0.9-0.3-1.8-0.7-2.6c-1.1-2-3.8-2.6-6-1.9c-2.2,0.6-4,2.2-5.7,3.7     c-1.7,1.5-3.5,3-5.7,3.6c-5,1.2-8-4.5-9-8.6c-0.7-2.7-0.8-5.6-0.5-8.4c0.1-0.8,0.2-1.6,0.3-2.4c0.2-1,0.2-6,0.1-7.1     c-0.1-1-0.4,1.8-1.3,1.3c-0.9-0.6-2.2-0.4-2.8,0.4c-0.4,0.5-0.4,1.2-0.4,1.9c0,3.2,0.5,6.5,1.4,9.6c0.9,3,1.8,6.2,1.5,9.3     c-0.1,0.7-0.2,1.4-0.4,2.1c-0.5,1.5-1.3,2.9-2,4.4c-0.2,0.5-0.7,1.2-0.6,1.8c0.1,0.5,0.4,1.1,0.6,1.5c0.5,1.2,1.1,2.3,1.8,3.3     c1.4,2.1,3.3,3.8,5.5,5.2c3.6,2.2,7.9,3.3,12.2,3.3c2.7,0,5.4-0.4,7.6-1.9c2.8-1.9,4.3-5.2,4.7-8.5     C121.2,188,121.2,186.7,121.2,185.3z"/><path class="st12" d="M108.8,182c0,0,6.3,3.5,9.1-1c0,0,1,6.4-4,6.2C108.4,187,108.8,182,108.8,182z"/><path class="st3" d="M82.4,143.5c0,0-25.9,2.8,0.6,47.5c0,0,6.1-5.6,10.3-35.6c0,0,3.9,1.2,9.7,2.1c-1.2,0.2-2.5,3.2-3.8,2.9     c0,0,7.8,0.8,12.1-1.8c0.1,0,0.2,0,0.4,0c-1.3,1-1.3,2.7-3.2,3c0,0,6.7-1.6,10.1-4.5c2.3-1.2,3.2-3.2,3.9-6.2     C125.6,136.8,104.5,132.7,82.4,143.5z"/><path class="st4" d="M91.4,171.9c1.3,3.3,0.3,6.8-2.1,7.7c-2.4,0.9-5.4-1.1-6.6-4.4c-1.3-3.3-0.3-6.8,2.1-7.7     C87.2,166.5,90.2,168.5,91.4,171.9z"/><g><path class="st3" d="M86.9,178.1c0,0-0.1,0-0.1,0c-1.3-0.4-2.5-1.7-3.1-3.3c-0.4-1.2-0.5-2.4-0.2-3.5c0.3-1.1,1-1.9,1.9-2.3      c1.1-0.4,2.4-0.1,3.5,0.9c0.2,0.1,0.2,0.4,0,0.5c-0.1,0.2-0.4,0.2-0.5,0c-0.9-0.8-1.9-1.1-2.7-0.7c-0.7,0.3-1.2,0.9-1.4,1.8      c-0.3,0.9-0.2,2,0.2,3.1c0.5,1.4,1.5,2.5,2.6,2.8c0.2,0.1,0.3,0.3,0.2,0.5C87.2,178,87.1,178.1,86.9,178.1z"/></g><linearGradient gradientUnits="userSpaceOnUse" id="SVGID_13_" x1="80.2318" x2="106.3929" y1="208.0971" y2="208.0971"><stop offset="0" style="stop-color:#4361EE"/><stop offset="1" style="stop-color:#480CA8"/></linearGradient><path class="st26" d="M100.1,216.6H86.5c-3.5,0-6.3-2.8-6.3-6.3v-6.7c0-2.2,1.8-4,4-4h18.1c2.2,0,4,1.8,4,4v6.7     C106.4,213.8,103.6,216.6,100.1,216.6z"/><linearGradient gradientUnits="userSpaceOnUse" id="SVGID_14_" x1="101.581" x2="135.3607" y1="315.2613" y2="315.2613"><stop offset="0" style="stop-color:#4361EE"/><stop offset="1" style="stop-color:#480CA8"/></linearGradient><path class="st27" d="M113.5,336.4l-9.5-4.9c-2.2-1.2-3.1-3.9-1.9-6.1l15.2-29.3c1.2-2.2,3.9-3.1,6.1-1.9l9.5,4.9     c2.2,1.2,3.1,3.9,1.9,6.1l-15.2,29.3C118.4,336.7,115.7,337.5,113.5,336.4z"/><path class="st20" d="M84.7,211.4h-0.3c-0.4,0-0.8-0.3-0.8-0.8v-7.7c0-0.4,0.3-0.8,0.8-0.8h0.3c0.4,0,0.8,0.3,0.8,0.8v7.7     C85.4,211,85.1,211.4,84.7,211.4z"/><path class="st20" d="M90.6,211.4h-0.3c-0.4,0-0.8-0.3-0.8-0.8v-7.7c0-0.4,0.3-0.8,0.8-0.8h0.3c0.4,0,0.8,0.3,0.8,0.8v7.7     C91.4,211,91,211.4,90.6,211.4z"/><path class="st20" d="M96.6,211.4h-0.3c-0.4,0-0.8-0.3-0.8-0.8v-7.7c0-0.4,0.3-0.8,0.8-0.8h0.3c0.4,0,0.8,0.3,0.8,0.8v7.7     C97.3,211,97,211.4,96.6,211.4z"/><path class="st20" d="M102.6,211.4h-0.3c-0.4,0-0.8-0.3-0.8-0.8v-7.7c0-0.4,0.3-0.8,0.8-0.8h0.3c0.4,0,0.8,0.3,0.8,0.8v7.7     C103.3,211,103,211.4,102.6,211.4z"/><path class="st20" d="M116.3,331.9l-0.1,0.2c-0.2,0.4-0.6,0.5-1,0.3l-6.9-3.6c-0.4-0.2-0.5-0.6-0.3-1l0.1-0.2     c0.2-0.4,0.6-0.5,1-0.3l6.9,3.6C116.4,331.1,116.5,331.5,116.3,331.9z"/><path class="st20" d="M119.1,326.6l-0.1,0.2c-0.2,0.4-0.6,0.5-1,0.3l-6.9-3.6c-0.4-0.2-0.5-0.6-0.3-1l0.1-0.2     c0.2-0.4,0.6-0.5,1-0.3l6.9,3.6C119.1,325.8,119.3,326.2,119.1,326.6z"/><path class="st20" d="M121.7,321.5l-0.1,0.2c-0.2,0.4-0.6,0.5-1,0.3l-6.9-3.6c-0.4-0.2-0.5-0.6-0.3-1l0.1-0.2     c0.2-0.4,0.6-0.5,1-0.3l6.9,3.6C121.8,320.7,121.9,321.2,121.7,321.5z"/><path class="st20" d="M124.6,316l-0.1,0.2c-0.2,0.4-0.6,0.5-1,0.3l-6.9-3.6c-0.4-0.2-0.5-0.6-0.3-1l0.1-0.2     c0.2-0.4,0.6-0.5,1-0.3l6.9,3.6C124.6,315.2,124.8,315.7,124.6,316z"/><path class="st20" d="M127.4,310.6l-0.1,0.2c-0.2,0.4-0.6,0.5-1,0.3l-6.9-3.6c-0.4-0.2-0.5-0.6-0.3-1l0.1-0.2     c0.2-0.4,0.6-0.5,1-0.3l6.9,3.6C127.5,309.7,127.6,310.2,127.4,310.6z"/><path class="st20" d="M130.3,305.1l-0.1,0.2c-0.2,0.4-0.6,0.5-1,0.3l-6.9-3.6c-0.4-0.2-0.5-0.6-0.3-1l0.1-0.2     c0.2-0.4,0.6-0.5,1-0.3l6.9,3.6C130.4,304.2,130.5,304.7,130.3,305.1z"/><path class="st4" d="M207.2,237.2l1.2,2.7c1.4,3.3,2.3,6.9,2.5,10.5l-0.2,3.7c-0.1,1.8-0.6,3.4-2.3,3.7l0,0c-0.1,0-0.1,0-0.2,0     c-1.5,0.2-2.8-0.9-3.1-2.4l-0.7-4.1c-0.7-3.1-1.7-6-3.2-8.8l-1.3-1.8c-1.4-2.5,0.3-5.7,3.2-5.9l0,0     C204.8,234.5,206.5,235.5,207.2,237.2z"/><path class="st4" d="M200.2,237.8l1.4,3.1c1.6,3.8,2.6,7.8,2.9,12l-0.2,4.2c-0.1,2-0.7,3.8-2.7,4.2l0,0c-0.1,0-0.1,0-0.2,0     c-1.7,0.2-3.2-1-3.5-2.7l-0.8-4.7c-0.7-3.5-2-6.9-3.7-10l-1.4-2.1c-1.6-2.9,0.3-6.4,3.6-6.8l0,0     C197.5,234.8,199.4,236,200.2,237.8z"/><path class="st4" d="M192.5,238.2l1.4,3.1c1.6,3.8,3.2,10.7,3.5,14.8l-0.2,4.2c-0.1,2-0.7,3.8-2.7,4.2l0,0c-0.1,0-0.1,0-0.2,0     c-1.7,0.2-3.2-1-3.5-2.7l-0.8-4.7c-0.7-3.5-2.6-9.8-4.3-12.9l-1.4-2.1c-1.6-2.9,0.3-6.4,3.6-6.8l0,0     C189.8,235.2,191.8,236.4,192.5,238.2z"/><path class="st4" d="M185.2,240.7l1.4,3.1c1.6,3.9,2.6,8,2.9,12.2l-0.2,4.3c-0.1,2-0.7,3.9-2.7,4.3l0,0c-0.1,0-0.1,0-0.2,0     c-1.7,0.2-3.3-1.1-3.6-2.8l-0.8-4.8c-0.8-3.6-2-7-3.7-10.2l-1.5-2.1c-1.6-2.9,0.3-6.6,3.7-6.9l0,0     C182.5,237.6,184.4,238.8,185.2,240.7z"/><g><path class="st3" d="M50.8,459C50.8,459,50.8,459,50.8,459c-0.2,0-0.4-0.2-0.4-0.4l6.3-125.9c0-0.2,0.2-0.3,0.4-0.4      c0.2,0,0.4,0.2,0.4,0.4l-6.3,125.9C51.2,458.9,51,459,50.8,459z"/></g><g><path class="st3" d="M63.1,363.8c-0.2,0-0.4-0.1-0.4-0.3c0-0.2,0.1-0.4,0.3-0.4c0.2,0,22.2-2.4,24.6-30.3c0-0.2,0.2-0.4,0.4-0.3      c0.2,0,0.4,0.2,0.3,0.4C86,361.3,63.4,363.8,63.1,363.8C63.1,363.8,63.1,363.8,63.1,363.8z"/></g><g><path class="st3" d="M92.9,459C92.9,459,92.9,459,92.9,459c-0.3,0-0.4-0.2-0.4-0.4l12.4-97.5l16.5-10.1c0.2-0.1,0.4-0.1,0.5,0.1      c0.1,0.2,0.1,0.4-0.1,0.5l-16.1,10l-12.3,97.2C93.3,458.9,93.1,459,92.9,459z"/></g><g><path class="st3" d="M97.3,288c-0.2,0-0.4-0.2-0.4-0.4c0-13.7-8.4-53.1-8.5-53.5c0-0.2,0.1-0.4,0.3-0.4c0.2,0,0.4,0.1,0.4,0.3      c0.1,0.4,8.5,39.9,8.5,53.7C97.7,287.9,97.6,288,97.3,288C97.3,288,97.3,288,97.3,288z"/></g><g><path class="st3" d="M116.1,294.1c-0.1,0-0.2,0-0.2-0.1c-1.4-1.1-18.6-11-18.8-11.1c-0.2-0.1-0.2-0.3-0.1-0.5      c0.1-0.2,0.3-0.2,0.5-0.1c0.7,0.4,17.4,10,18.9,11.1c0.2,0.1,0.2,0.4,0.1,0.5C116.3,294,116.2,294.1,116.1,294.1z"/></g><g><path class="st13" d="M174.4,342C174.4,342,174.4,342,174.4,342l-4.9-0.5c-6.4-0.7-12.6-2.5-18.4-5.4c-0.2-0.1-0.3-0.3-0.2-0.5      c0.1-0.2,0.3-0.3,0.5-0.2c5.7,2.8,11.8,4.6,18.1,5.3l4.9,0.5c3.9,0,5.7-1,6.1-3.5l0.2-1.2c0.1-0.8-0.1-1.6-0.6-2.3      c-0.5-0.6-1.2-1.1-2-1.2c-8.4-1-16.7-3.9-23.8-8.6l-6.9-4.7c-0.3-0.2-0.4-0.5-0.3-0.8c0.1-0.3,0.3-0.5,0.7-0.5      c1.4,0,3.8,0.2,7.3,0.8c0.2,0,0.3,0.2,0.3,0.4c0,0.2-0.2,0.3-0.4,0.3c-3.4-0.6-5.8-0.8-7-0.8l6.8,4.6c7,4.6,15.1,7.5,23.4,8.5      c1,0.1,1.9,0.6,2.6,1.4c0.6,0.8,0.9,1.8,0.7,2.8l-0.2,1.2C180.7,341.6,177.3,342,174.4,342z"/></g><g><path class="st13" d="M167.5,348.2C167.5,348.2,167.4,348.2,167.5,348.2l-4.9-0.5c-5.9-0.6-11.6-2.2-16.9-4.7      c-0.2-0.1-0.3-0.3-0.2-0.5s0.3-0.3,0.5-0.2c5.3,2.4,10.9,4,16.7,4.6l4.9,0.5c3.9,0,5.7-1,6.1-3.5c0.1-0.7,0-1.5-0.2-2.2      c-0.1-0.2,0-0.4,0.2-0.5c0.2-0.1,0.4,0,0.5,0.2c0.3,0.8,0.4,1.7,0.3,2.6C173.8,347.8,170.4,348.2,167.5,348.2z"/></g><g><path class="st13" d="M161.6,351.8C161.5,351.8,161.5,351.8,161.6,351.8c-12.4-0.3-25.2-8.2-25.4-8.3c-0.2-0.1-0.2-0.3-0.1-0.5      c0.1-0.2,0.3-0.2,0.5-0.1c0.1,0.1,12.8,7.9,24.9,8.1c0.3,0,0.6,0,0.9-0.1c1-0.3,2.7-1.1,3-3.1c0-0.2,0.2-0.3,0.4-0.3      c0.2,0,0.3,0.2,0.3,0.4c-0.4,2.5-2.6,3.5-3.5,3.8C162.3,351.8,161.9,351.8,161.6,351.8z"/></g><g><path class="st13" d="M186,265c-1.7,0-3.3-1.3-3.6-3.1l-0.8-4.8c-0.8-3.5-2-6.9-3.7-10.1c-0.1-0.2,0-0.4,0.2-0.5      c0.2-0.1,0.4,0,0.5,0.2c1.7,3.2,3,6.7,3.8,10.3l0.8,4.8c0.3,1.6,1.7,2.6,3.2,2.5c0.1,0,0.1,0,0.2,0c1.5-0.3,2.3-1.6,2.4-3.9      l0.2-4.3c-0.3-4.1-1.3-8.2-2.9-12c-0.1-0.2,0-0.4,0.2-0.5c0.2-0.1,0.4,0,0.5,0.2c1.7,3.9,2.6,8.1,3,12.3l-0.2,4.3      c-0.1,3.4-1.7,4.4-3,4.6c-0.1,0-0.2,0-0.2,0C186.3,265,186.1,265,186,265z"/></g><g><path class="st13" d="M193.9,265c-1.7,0-3.3-1.3-3.6-3.1l-0.8-4.8c-0.1-0.3-0.2-0.7-0.2-1c0-0.2,0.1-0.4,0.3-0.5      c0.2,0,0.4,0.1,0.5,0.3c0.1,0.4,0.2,0.7,0.2,1.1l0.8,4.8c0.3,1.6,1.7,2.6,3.2,2.5c0.1,0,0.1,0,0.2,0c1.5-0.3,2.3-1.6,2.4-3.9      l0.2-4.3c-0.3-4.1-1.3-8.2-2.9-12c-0.1-0.2,0-0.4,0.2-0.5c0.2-0.1,0.4,0,0.5,0.2c1.7,3.9,2.6,8.1,3,12.3l-0.2,4.3      c-0.1,3.4-1.7,4.4-3,4.6c-0.1,0-0.2,0-0.2,0C194.1,265,194,265,193.9,265z"/></g><g><path class="st13" d="M200.9,261.6c-1.7,0-3.3-1.3-3.6-3.1l-0.5-4.8c0-0.2,0.1-0.4,0.3-0.4c0.2,0,0.4,0.1,0.4,0.3l0.5,4.8      c0.3,1.5,1.7,2.6,3.2,2.4c0.1,0,0.1,0,0.2,0c1.5-0.3,2.3-1.6,2.4-3.9l0.2-4.3c-0.3-4.1-1.3-8.2-2.9-12c-0.1-0.2,0-0.4,0.2-0.5      c0.2-0.1,0.4,0,0.5,0.2c1.7,3.9,2.6,8.1,3,12.3l-0.2,4.3c-0.1,3.4-1.7,4.4-3,4.6c-0.1,0-0.2,0-0.2,0      C201.2,261.6,201,261.6,200.9,261.6z"/></g><g><path class="st13" d="M207.8,258c-1.6,0-3-1.2-3.3-2.8l-0.5-4.3c0-0.2,0.1-0.4,0.3-0.4c0.2,0,0.4,0.1,0.4,0.3l0.5,4.3      c0.2,1.3,1.5,2.3,2.8,2.1c0.1,0,0.1,0,0.2,0c1.3-0.2,2-1.4,2.1-3.5l0.2-3.8c-0.3-3.7-1.1-7.3-2.6-10.7c-0.1-0.2,0-0.4,0.2-0.5      c0.2-0.1,0.4,0,0.5,0.2c1.5,3.5,2.4,7.2,2.6,11l-0.2,3.9c-0.1,3.1-1.6,3.9-2.7,4.2c-0.1,0-0.1,0-0.2,0      C208,258,207.9,258,207.8,258z"/></g><g><path class="st3" d="M111.1,173.8c-0.2,0-0.4-0.2-0.4-0.4c0-0.2,0.2-0.4,0.4-0.4l3.7,0c0.2,0,0.3-0.1,0.4-0.2      c0.1-0.2,0.1-0.3,0-0.5l-3.4-7.3c-0.1-0.2,0-0.4,0.2-0.5c0.2-0.1,0.4,0,0.5,0.2l3.4,7.3c0.2,0.4,0.2,0.8-0.1,1.2      c-0.2,0.4-0.6,0.6-1.1,0.6L111.1,173.8C111.1,173.8,111.1,173.8,111.1,173.8z"/></g><g><path class="st3" d="M99.8,164.6c-0.1,0-0.2,0-0.2-0.1c-0.2-0.1-0.2-0.4-0.1-0.5c0.1-0.1,3-3.6,8-2.4c0.2,0,0.3,0.3,0.3,0.5      c0,0.2-0.3,0.3-0.5,0.3c-4.5-1.1-7.2,2.1-7.2,2.2C100,164.6,99.9,164.6,99.8,164.6z"/></g><g><path class="st3" d="M118.7,163.3c-0.1,0-0.2,0-0.3-0.1c-0.1-0.1-2.5-2.9-6-1.5c-0.2,0.1-0.4,0-0.5-0.2c-0.1-0.2,0-0.4,0.2-0.5      c4-1.6,6.9,1.7,6.9,1.7c0.1,0.2,0.1,0.4,0,0.5C118.9,163.3,118.8,163.3,118.7,163.3z"/></g><circle class="st3" cx="104.4" cy="165.5" r="1.1"/><path class="st3" d="M117.4,165.3c0,0.6-0.5,1.1-1.1,1.1c-0.6,0-1.1-0.5-1.1-1.1c0-0.6,0.5-1.1,1.1-1.1     C116.9,164.2,117.4,164.7,117.4,165.3z"/><path class="st18" d="M104.7,176.2c0,2-1.7,3.7-3.7,3.7c-2,0-3.7-1.7-3.7-3.7c0-2,1.7-3.7,3.7-3.7     C103.1,172.5,104.7,174.2,104.7,176.2z"/></g><g><path class="st28" d="M238.9,436.6h-40.2c-9.4,0-17-7.6-17-17v-40.2c0-9.4,7.6-17,17-17h40.2c9.4,0,17,7.6,17,17v40.2     C255.9,429,248.3,436.6,238.9,436.6z"/><path class="st12" d="M245.3,405.5c0-5.7-4.6-10.3-10.3-10.3c-0.3,0-0.5,0-0.8,0c-0.8-7.9-7.5-14.1-15.7-14.1     c-8.1,0-14.8,6.1-15.7,13.9c-5.6,0.3-10.1,4.9-10.5,10.5h0c0,0.1,0,0.2,0,0.3c0,0.1,0,0.2,0,0.3c0,3.5,1.6,6.6,4.1,8.7     c2.3,2.1,5.2,3.3,8.5,3.3h27.7c6.6,0,12.1-5.1,12.6-11.6C245.3,406.2,245.3,405.8,245.3,405.5z"/></g><g><linearGradient gradientUnits="userSpaceOnUse" id="SVGID_15_" x1="288.1499" x2="288.1499" y1="142.6259" y2="79.8173"><stop offset="0" style="stop-color:#A00E11"/><stop offset="6.770599e-02" style="stop-color:#B01A14"/><stop offset="0.2138" style="stop-color:#CD3019"/><stop offset="0.3704" style="stop-color:#E3411D"/><stop offset="0.5404" style="stop-color:#F34E20"/><stop offset="0.7335" style="stop-color:#FC5521"/><stop offset="1" style="stop-color:#FF5722"/></linearGradient><path class="st29" d="M304.9,131.1h-33.5c-6.2,0-11.3-5.1-11.3-11.3V86.3c0-6.2,5.1-11.3,11.3-11.3h33.5     c6.2,0,11.3,5.1,11.3,11.3v33.5C316.2,126,311.1,131.1,304.9,131.1z"/><g><g><path class="st12" d="M274.5,105.5l5.4,2.2c0.1,0,0.2,0.1,0.3,0.3c0.1,0.1,0.1,0.3,0.1,0.4v3.5c0,0.3-0.1,0.5-0.3,0.6       c-0.2,0.1-0.4,0.2-0.7,0.1l-12.2-4.9c-0.1,0-0.2-0.1-0.3-0.3c-0.1-0.1-0.1-0.3-0.1-0.4v-2.8c0-0.1,0-0.3,0.1-0.4       c0.1-0.1,0.2-0.2,0.3-0.3l12.2-4.9c0.3-0.1,0.5-0.1,0.7,0.1c0.2,0.1,0.3,0.3,0.3,0.6v3.5c0,0.1,0,0.3-0.1,0.4       c-0.1,0.1-0.2,0.2-0.3,0.3L274.5,105.5z"/><path class="st12" d="M291.1,93.8c0.1-0.1,0.2-0.2,0.3-0.3c0.1-0.1,0.2-0.1,0.3-0.1h3.3c0.3,0,0.5,0.1,0.6,0.3       c0.1,0.2,0.1,0.5,0,0.7l-8.8,17.8c0,0.1-0.1,0.2-0.3,0.3c-0.1,0.1-0.2,0.1-0.4,0.1h-3.2c-0.3,0-0.5-0.1-0.6-0.3       c-0.1-0.2-0.1-0.5,0-0.7L291.1,93.8z"/><path class="st12" d="M301.8,105.5l-5.4-2.2c-0.1,0-0.2-0.1-0.3-0.3c-0.1-0.1-0.1-0.3-0.1-0.4v-3.5c0-0.3,0.1-0.5,0.3-0.6       c0.2-0.1,0.4-0.2,0.7-0.1l12.2,4.9c0.1,0,0.2,0.1,0.3,0.3c0.1,0.1,0.1,0.3,0.1,0.4v2.8c0,0.1,0,0.3-0.1,0.4       c-0.1,0.1-0.2,0.2-0.3,0.3l-12.2,4.9c-0.3,0.1-0.5,0.1-0.7-0.1c-0.2-0.1-0.3-0.3-0.3-0.6v-3.5c0-0.1,0-0.3,0.1-0.4       c0.1-0.1,0.2-0.2,0.3-0.3L301.8,105.5z"/></g></g></g><ellipse class="st17" cx="328" cy="381.5" rx="10.4" ry="10.4" transform="matrix(0.9239 -0.3827 0.3827 0.9239 -121.0068 154.568)"/><circle class="st2" cx="28.8" cy="287.4" r="5.2"/><path class="st30" d="M291.7,417.9l-8.6,14.9c-1.3,2.3,0.3,5.1,3,5.1h17.1c2.6,0,4.3-2.8,3-5.1l-8.6-14.9    C296.3,415.6,293,415.6,291.7,417.9l-8.6,14.9c-1.3,2.3,0.3,5.1,3,5.1h17.1c2.6,0,4.3-2.8,3-5.1l-8.6-14.9    C296.3,415.6,293,415.6,291.7,417.9z"/><polygon class="st28" points="358.5,112.8 345.8,112.8 339.5,123.8 345.8,134.8 358.5,134.8 364.9,123.8   "/><g><path class="st3" d="M495.8,463.7H16.2c-0.8,0-1.5-0.7-1.5-1.5c0-0.8,0.7-1.5,1.5-1.5h479.6c0.8,0,1.5,0.7,1.5,1.5     C497.3,463,496.6,463.7,495.8,463.7z"/></g></g></g></svg>